<svg width="17" height="12" viewBox="0 0 17 12" fill="none" xmlns="http://www.w3.org/2000/svg">
<path opacity="0.7" d="M0.500622 2.87504H16.4997V2.21146C16.4997 0.742124 15.735 0 14.2121 0H2.7882C1.26564 0 0.500311 0.742124 0.500311 2.21176L0.500622 2.87504ZM0.500622 9.79555C0.500622 11.2652 1.26532 12 2.7882 12H14.2121C15.7347 12 16.5 11.2652 16.5 9.79555V4.49475H0.5L0.500622 9.79555ZM2.93399 8.05469V6.73482C2.93399 6.33545 3.21811 6.04992 3.64803 6.04992H5.43295C5.86286 6.04992 6.14699 6.33545 6.14699 6.73482V8.05469C6.14699 8.46137 5.86286 8.73959 5.43295 8.73959H3.64771C3.2178 8.73959 2.93399 8.46137 2.93399 8.05469Z" fill="black"/>
</svg>
