<svg width="16" height="19" viewBox="0 0 16 19" fill="none" xmlns="http://www.w3.org/2000/svg">
<path d="M9.66671 1.5918V5.03391C9.66671 5.50062 9.66671 5.73398 9.75754 5.91224C9.83743 6.06904 9.96491 6.19652 10.1217 6.27642C10.3 6.36725 10.5333 6.36725 11 6.36725H14.4422M5.50004 13.0339L7.16671 14.7005L10.9167 10.9505M9.66671 1.36719H5.33337C3.93324 1.36719 3.23318 1.36719 2.6984 1.63967C2.22799 1.87935 1.84554 2.26181 1.60586 2.73221C1.33337 3.26699 1.33337 3.96706 1.33337 5.36719V14.0339C1.33337 15.434 1.33337 16.1341 1.60586 16.6688C1.84554 17.1392 2.22799 17.5217 2.6984 17.7614C3.23318 18.0339 3.93324 18.0339 5.33337 18.0339H10.6667C12.0668 18.0339 12.7669 18.0339 13.3017 17.7614C13.7721 17.5217 14.1545 17.1392 14.3942 16.6688C14.6667 16.1341 14.6667 15.434 14.6667 14.0339V6.36719L9.66671 1.36719Z" stroke="#292D32" stroke-width="1.5" stroke-linecap="round" stroke-linejoin="round"/>
</svg>
