<svg width="13" height="12" viewBox="0 0 13 12" fill="none" xmlns="http://www.w3.org/2000/svg">
<path opacity="0.7" d="M9.50011 0.803935C10.4051 1.32645 11.1579 2.07625 11.684 2.97912C12.2102 3.88198 12.4914 4.9066 12.4998 5.95154C12.5082 6.99648 12.2436 8.02551 11.7322 8.93675C11.2207 9.848 10.4801 10.6099 9.58366 11.1469C8.68724 11.684 7.66611 11.9776 6.62133 11.9988C5.57656 12.0199 4.54438 11.7678 3.62697 11.2675C2.70956 10.7671 1.93874 10.0358 1.39081 9.14604C0.842882 8.25624 0.536846 7.23876 0.503 6.19433L0.5 5.99993L0.503 5.80553C0.536602 4.76933 0.838133 3.75951 1.37819 2.87453C1.91826 1.98955 2.67842 1.25961 3.58457 0.755865C4.49073 0.252123 5.51195 -0.00822647 6.54868 0.000198147C7.58541 0.00862276 8.60226 0.285534 9.50011 0.803935ZM6.50007 2.39994C6.35311 2.39995 6.21127 2.45391 6.10145 2.55156C5.99162 2.64922 5.92146 2.78378 5.90427 2.92974L5.90007 2.99994V5.99993L5.90547 6.07853C5.91915 6.18263 5.9599 6.28132 6.02367 6.36473L6.07587 6.42473L7.87589 8.22473L7.93229 8.27393C8.03752 8.35557 8.16691 8.39988 8.3001 8.39988C8.43328 8.39988 8.56268 8.35557 8.6679 8.27393L8.7243 8.22413L8.7741 8.16773C8.85574 8.06251 8.90005 7.93312 8.90005 7.79993C8.90005 7.66675 8.85574 7.53736 8.7741 7.43213L8.7243 7.37573L7.10008 5.75093V2.99994L7.09588 2.92974C7.07869 2.78378 7.00852 2.64922 6.8987 2.55156C6.78888 2.45391 6.64704 2.39995 6.50007 2.39994Z" fill="black"/>
</svg>
