<svg width="31" height="30" viewBox="0 0 31 30" fill="none" xmlns="http://www.w3.org/2000/svg">
<path d="M28 6.4375V11.0625C28 13.875 26.875 15 24.0625 15H20.6875C17.875 15 16.75 13.875 16.75 11.0625V6.4375C16.75 3.625 17.875 2.5 20.6875 2.5H24.0625C26.875 2.5 28 3.625 28 6.4375Z" fill="white"/>
<path d="M14.25 18.9375V23.5625C14.25 26.375 13.125 27.5 10.3125 27.5H6.9375C4.125 27.5 3 26.375 3 23.5625V18.9375C3 16.125 4.125 15 6.9375 15H10.3125C13.125 15 14.25 16.125 14.25 18.9375Z" fill="white"/>
<path d="M18.975 27.5C18.6375 27.5 18.325 27.3125 18.1625 27.025C18 26.725 18 26.375 18.175 26.075L19.3875 24.05C19.65 23.6 20.225 23.4625 20.675 23.725C21.125 23.9875 21.2625 24.5625 21 25.0125L20.775 25.3875C23.8625 24.5875 26.1375 21.7875 26.1375 18.4625C26.1375 17.95 26.5625 17.525 27.075 17.525C27.5875 17.525 28 17.95 28 18.475C28 23.45 23.95 27.5 18.975 27.5Z" fill="white"/>
<path d="M3.9375 12.4625C3.425 12.4625 3 12.05 3 11.525C3 6.55 7.05 2.5 12.025 2.5C12.375 2.5 12.675 2.6875 12.85 2.975C13.0125 3.275 13.0125 3.625 12.8375 3.925L11.625 5.9375C11.35 6.3875 10.775 6.5375 10.3375 6.2625C9.8875 6 9.75 5.425 10.0125 4.975L10.2375 4.6C7.1625 5.4 4.875 8.2 4.875 11.525C4.875 12.05 4.45 12.4625 3.9375 12.4625Z" fill="white"/>
</svg>
