<svg width="40" height="41" viewBox="0 0 40 41" fill="none" xmlns="http://www.w3.org/2000/svg">
<rect y="0.5" width="40" height="40" rx="20" fill="#CCFFDC"/>
<path d="M21.2679 15.7545C20.0199 15.1306 19.6147 13.8407 19.4836 13.1162C19.429 12.8143 19.1689 12.5933 18.862 12.5933C18.5552 12.5933 18.2951 12.8143 18.2404 13.1162C18.1093 13.8406 17.7041 15.1306 16.4561 15.7545C14.6658 16.6497 14.6658 18.7758 16.2324 19.4473C17.7614 20.1026 18.862 18.3562 18.862 18.3562C18.862 18.3562 19.9627 20.1025 21.4917 19.4473C23.0584 18.7758 23.0584 16.6497 21.2679 15.7545Z" fill="#F4DBCE"/>
<path d="M19.9008 16.1078C19.9008 16.6138 19.3684 17.1417 18.8625 17.1417C18.3565 17.1417 17.8242 16.6138 17.8242 16.1078C17.8242 15.6019 18.3565 15.8058 18.8625 15.8058C19.3684 15.8057 19.9008 15.6019 19.9008 16.1078Z" fill="#7D3D1A"/>
<path d="M20.8103 19.8243C19.9667 19.8243 19.2641 19.2514 18.8622 18.7529C18.3426 19.3971 17.3202 20.166 16.1411 19.6606C15.3586 19.3253 14.877 18.637 14.853 17.8196C14.8258 16.8939 15.4003 16.0231 16.3526 15.5471C17.5125 14.967 17.8903 13.7493 18.0123 13.075C18.0871 12.6614 18.4446 12.3613 18.8622 12.3613C19.2799 12.3613 19.6373 12.6615 19.7121 13.075C19.8341 13.7493 20.2119 14.967 21.3718 15.5471C22.324 16.0231 22.8986 16.8939 22.8714 17.8196C22.8474 18.637 22.3658 19.3253 21.5833 19.6606C21.3163 19.7751 21.0573 19.8242 20.8103 19.8243ZM18.8622 18.1243C18.9418 18.1243 19.016 18.1651 19.0585 18.2326C19.0609 18.2364 19.3235 18.6461 19.754 18.9703C20.2983 19.3803 20.8522 19.4691 21.4005 19.2341C22.0126 18.9718 22.389 18.4379 22.4076 17.806C22.4294 17.0631 21.9531 16.3565 21.1644 15.9622C19.8237 15.2919 19.3929 13.9173 19.2556 13.1577C19.2208 12.9652 19.0554 12.8255 18.8623 12.8255C18.6692 12.8255 18.5038 12.9652 18.469 13.1578C18.3316 13.9174 17.9009 15.2919 16.5602 15.9622C15.7715 16.3566 15.2952 17.0631 15.317 17.8061C15.3355 18.438 15.712 18.9719 16.3241 19.2342C17.6556 19.8049 18.6561 18.2485 18.6661 18.2327C18.7084 18.1652 18.7826 18.1243 18.8622 18.1243Z" fill="black"/>
<path d="M18.862 17.3736C18.2209 17.3736 17.5916 16.7465 17.5916 16.1076C17.5916 15.9217 17.6473 15.7766 17.7573 15.6764C17.9522 15.4988 18.2336 15.525 18.5313 15.5526C18.6411 15.5628 18.7544 15.5734 18.8619 15.5734C18.9694 15.5734 19.0827 15.5628 19.1924 15.5526C19.4902 15.5249 19.7715 15.4987 19.9664 15.6764C20.0764 15.7766 20.1322 15.9217 20.1322 16.1076C20.1323 16.7465 19.5031 17.3736 18.862 17.3736ZM18.2067 15.9971C18.1406 15.9971 18.0871 16.0027 18.0699 16.0194C18.0698 16.0195 18.0557 16.0387 18.0557 16.1076C18.0557 16.4823 18.4852 16.9095 18.8621 16.9095C19.2389 16.9095 19.6683 16.4823 19.6683 16.1076C19.6683 16.0388 19.6542 16.0196 19.654 16.0194C19.6132 15.9797 19.3676 16.0025 19.2356 16.0149C19.1155 16.0261 18.9911 16.0376 18.8621 16.0376C18.733 16.0376 18.6088 16.026 18.4886 16.0149C18.412 16.0077 18.2975 15.9971 18.2067 15.9971Z" fill="black"/>
<path d="M18.8424 18.649C18.7142 18.649 18.6104 18.5452 18.6104 18.417V17.3238C18.6104 17.1957 18.7142 17.0918 18.8424 17.0918C18.9706 17.0918 19.0744 17.1957 19.0744 17.3238V18.417C19.0744 18.5452 18.9706 18.649 18.8424 18.649Z" fill="black"/>
<path d="M22.6979 9.0977C22.5491 9.09389 22.417 9.09565 22.3 9.10197C21.8622 9.12573 21.6975 9.69554 22.0586 9.9443C22.4165 10.1909 22.8002 10.6533 22.8164 11.505C22.8471 13.1151 23.6212 17.5943 24.7673 17.2308C25.6532 16.9498 23.9558 15.5233 25.8737 13.6251C27.7915 11.727 24.3161 9.13946 22.6979 9.0977Z" fill="#EAA250"/>
<path d="M15.0321 9.0977C15.1809 9.09389 15.3129 9.09565 15.43 9.10197C15.8678 9.12573 16.0325 9.69554 15.6714 9.9443C15.3135 10.1909 14.9298 10.6533 14.9135 11.505C14.8829 13.1151 14.1088 17.5943 12.9627 17.2308C12.0768 16.9498 13.7742 15.5233 11.8563 13.6251C9.93853 11.727 13.414 9.13946 15.0321 9.0977Z" fill="#EAA250"/>
<path d="M22.8167 11.5051C22.8005 10.6534 22.4168 10.1911 22.0588 9.94445C21.8579 9.80605 21.8202 9.56834 21.9014 9.38048C21.1383 8.92437 20.417 8.82923 19.8687 8.85559C19.1979 8.88779 18.5269 8.88779 17.8561 8.85559C17.309 8.82932 16.5895 8.92409 15.8281 9.37779C15.9108 9.56602 15.8735 9.8054 15.6716 9.94454C15.3137 10.1912 14.93 10.6535 14.9137 11.5052C14.8856 12.9839 14.2303 16.8818 13.2358 17.2269C13.4264 18.2277 14.5422 18.8624 15.8396 19.2266C14.6815 18.3943 14.8312 16.5675 16.4565 15.7548C17.7044 15.1309 18.1097 13.841 18.2407 13.1165C18.2954 12.8146 18.5555 12.5936 18.8623 12.5936C19.1692 12.5936 19.4293 12.8146 19.484 13.1165C19.615 13.8409 20.0203 15.1309 21.2682 15.7548C22.8935 16.5675 23.0432 18.3943 21.8851 19.2266C23.1834 18.8621 24.2998 18.2268 24.4892 17.2249C23.4977 16.8674 22.8448 12.9811 22.8167 11.5051Z" fill="#EAA250"/>
<path d="M24.6359 17.4838C24.512 17.4838 24.3659 17.4482 24.2113 17.3373C23.7568 17.0112 23.3572 16.1105 23.0238 14.6604C22.7398 13.4249 22.597 12.1611 22.5847 11.5096C22.5729 10.8904 22.3516 10.4281 21.9271 10.1356C21.6807 9.96579 21.5742 9.66867 21.6559 9.37861C21.7383 9.08633 21.9863 8.88677 22.2878 8.87043C22.4146 8.86347 22.5547 8.86198 22.7042 8.86588C23.9153 8.89716 25.9501 10.1944 26.5101 11.6079C26.8292 12.4135 26.6657 13.1682 26.0372 13.7902C24.9573 14.8589 25.1094 15.7341 25.2205 16.3732C25.2943 16.7986 25.3782 17.2808 24.8377 17.4521C24.7811 17.4701 24.7127 17.4838 24.6359 17.4838ZM22.5466 9.32794C22.4639 9.32794 22.3858 9.32988 22.3127 9.33388C22.1599 9.34214 22.1132 9.46651 22.1025 9.50438C22.0921 9.54142 22.0676 9.66877 22.1904 9.75332C22.5717 10.0161 23.0301 10.5325 23.0487 11.5006C23.0779 13.0386 23.7033 16.4016 24.4819 16.9602C24.5829 17.0327 24.6501 17.0247 24.6973 17.0097C24.8221 16.9702 24.8482 16.9422 24.7631 16.4526C24.6492 15.797 24.4585 14.6997 25.7106 13.4604C26.2036 12.9727 26.3273 12.4068 26.0786 11.7789C25.5567 10.4618 23.6562 9.35476 22.6923 9.32979C22.6423 9.32859 22.5938 9.32794 22.5466 9.32794Z" fill="black"/>
<path d="M13.0944 17.4837C13.0174 17.4837 12.9491 17.47 12.8927 17.452C12.3522 17.2807 12.436 16.7985 12.5099 16.3731C12.6209 15.734 12.7731 14.8589 11.6932 13.7901C11.0647 13.168 10.9012 12.4134 11.2203 11.6079C11.7804 10.1944 13.8151 8.89717 15.0262 8.86589C15.1756 8.86199 15.3158 8.86347 15.4427 8.87034C15.7442 8.88668 15.9922 9.08624 16.0745 9.37853C16.1562 9.66859 16.0498 9.9657 15.8033 10.1355C15.3788 10.428 15.1575 10.8903 15.1458 11.5096C15.1334 12.1611 14.9907 13.4249 14.7067 14.6604C14.3733 16.1106 13.9737 17.0112 13.5191 17.3373C13.3645 17.4481 13.2183 17.4837 13.0944 17.4837ZM15.1837 9.32785C15.1366 9.32785 15.0881 9.3285 15.0383 9.3298C14.0743 9.35467 12.1737 10.4618 11.6518 11.7789C11.403 12.4068 11.5268 12.9726 12.0197 13.4604C13.2719 14.6997 13.0811 15.7971 12.9672 16.4526C12.8821 16.9423 12.9083 16.9702 13.033 17.0097C13.0803 17.0249 13.1474 17.0328 13.2485 16.9603C13.5933 16.7129 13.9598 15.8368 14.2542 14.5564C14.5308 13.3532 14.6697 12.129 14.6816 11.5008C14.7001 10.5327 15.1585 10.0163 15.5399 9.75342C15.6627 9.66886 15.6382 9.54152 15.6278 9.50448C15.6171 9.46661 15.5703 9.34214 15.4176 9.33388C15.3447 9.3298 15.2664 9.32785 15.1837 9.32785Z" fill="black"/>
<path d="M21.8851 19.4587C21.7979 19.4587 21.7154 19.4091 21.6761 19.3271C21.6273 19.2257 21.6584 19.1038 21.7498 19.0381C22.2103 18.7072 22.4483 18.192 22.403 17.6245C22.3487 16.9442 21.8857 16.3229 21.1646 15.9623C19.824 15.2919 19.3932 13.9175 19.2557 13.1578C19.2209 12.9653 19.0555 12.8255 18.8625 12.8255C18.6694 12.8255 18.504 12.9652 18.4692 13.1578C18.3318 13.9175 17.901 15.2919 16.5604 15.9623C15.8393 16.3229 15.3763 16.9443 15.3219 17.6245C15.2765 18.192 15.5147 18.7072 15.9751 19.0381C16.0666 19.1038 16.0977 19.2257 16.0488 19.3271C16 19.4286 15.8854 19.4804 15.777 19.4499C14.15 18.9933 13.1925 18.2395 13.0079 17.2703C12.9864 17.1571 13.0511 17.0454 13.1598 17.0076C13.2881 16.963 13.7433 16.6677 14.2118 14.7364C14.5028 13.5366 14.6685 12.2005 14.6818 11.5007C14.7003 10.5326 15.1587 10.0162 15.5401 9.75331C15.6532 9.67534 15.6516 9.55254 15.6157 9.47096C15.5687 9.36375 15.6088 9.23826 15.7094 9.1783C16.3878 8.77407 17.1143 8.58713 17.8673 8.62361C18.5277 8.65535 19.1973 8.65535 19.8576 8.62361C20.6131 8.5875 21.3408 8.77491 22.0205 9.18117C22.1205 9.24095 22.1607 9.36551 22.1145 9.47244C22.0794 9.55366 22.0783 9.6759 22.1906 9.75322C22.572 10.0161 23.0304 10.5325 23.0489 11.5005C23.081 13.1876 23.7886 16.7254 24.568 17.0063C24.6753 17.045 24.7386 17.1557 24.7174 17.2677C24.5339 18.2381 23.5764 18.9926 21.948 19.4496C21.927 19.4559 21.9059 19.4587 21.8851 19.4587ZM13.5047 17.3443C13.7117 17.9912 14.3813 18.4328 15.0974 18.7284C14.9122 18.3868 14.8268 17.9935 14.8592 17.5876C14.9267 16.7439 15.485 15.9811 16.3527 15.5473C17.5127 14.9672 17.8905 13.7494 18.0124 13.0752C18.0872 12.6616 18.4447 12.3615 18.8624 12.3615C19.2801 12.3615 19.6375 12.6617 19.7123 13.0752C19.8343 13.7494 20.2122 14.9673 21.372 15.5473C22.2398 15.9811 22.7981 16.7439 22.8656 17.5876C22.898 17.9934 22.8126 18.3868 22.6274 18.7284C23.3447 18.4323 24.0152 17.9897 24.221 17.341C23.1422 16.5628 22.6078 12.7211 22.5848 11.5095C22.573 10.8903 22.3517 10.428 21.9273 10.1354C21.7128 9.98768 21.606 9.74273 21.6334 9.495C21.0769 9.19519 20.4874 9.05791 19.8799 9.08724C19.2048 9.11973 18.5201 9.11973 17.845 9.08724C17.2394 9.05828 16.652 9.19426 16.0972 9.49193C16.1259 9.74069 16.0191 9.98684 15.8033 10.1354C15.3789 10.428 15.1576 10.8903 15.1458 11.5095C15.1226 12.7256 14.5866 16.573 13.5047 17.3443Z" fill="black"/>
<path d="M19.9846 19.3885C19.2908 19.0363 18.8621 18.3564 18.8621 18.3564C18.8621 18.3564 18.4153 19.0641 17.6961 19.4092L17.5412 20.3971C17.4159 21.1959 18.0334 21.9178 18.8421 21.9178C19.6507 21.9178 20.2682 21.1959 20.1429 20.3971L19.9846 19.3885Z" fill="#FD605B"/>
<path d="M19.9199 19.353C19.9415 19.3649 19.9626 19.3773 19.9848 19.3886L20.143 20.3971C20.1786 20.6244 20.1524 20.8446 20.0806 21.0446C20.6175 20.7162 21.0528 20.1769 21.3102 19.5138C20.7791 19.6807 20.3057 19.5647 19.9199 19.353Z" fill="#52565B"/>
<path d="M17.5412 20.397L17.6961 19.4091C17.7047 19.405 17.7126 19.4003 17.7212 19.396C17.3596 19.575 16.9275 19.6642 16.4471 19.5233C16.6907 20.1454 17.0904 20.6594 17.5844 20.9898C17.5269 20.8047 17.5088 20.6036 17.5412 20.397Z" fill="#52565B"/>
<path d="M17.5844 20.9902C17.0905 20.6597 16.6908 20.1458 16.4472 19.5236C16.3766 19.5029 16.3052 19.4788 16.2325 19.4476C16.088 19.3857 15.9571 19.3112 15.8394 19.2267C15.2636 19.065 14.7241 18.8498 14.2849 18.5732C14.6257 19.9463 16.0007 21.0392 17.7685 21.3624C17.6885 21.2495 17.626 21.1242 17.5844 20.9902Z" fill="#039BE6"/>
<path d="M21.885 19.2262C21.7673 19.3107 21.6364 19.3851 21.4919 19.4471C21.4305 19.4734 21.3701 19.4945 21.3101 19.5133C21.0527 20.1763 20.6176 20.7157 20.0806 21.0441C20.039 21.1598 19.9824 21.2685 19.9115 21.3672C21.6899 21.0521 23.0769 19.9592 23.424 18.583C22.9876 18.8548 22.4538 19.0665 21.885 19.2262Z" fill="#039BE6"/>
<path d="M18.8422 22.1501C18.3888 22.1501 17.9598 21.9526 17.6652 21.608C17.3705 21.2636 17.2419 20.8091 17.3121 20.3613L17.4671 19.3735C17.4788 19.298 17.527 19.2332 17.5959 19.2002C18.2474 18.8875 18.662 18.2391 18.6661 18.2326C18.7086 18.1654 18.7827 18.1245 18.8623 18.1245C18.942 18.1245 19.0161 18.1654 19.0585 18.2328C19.0623 18.2388 19.4642 18.8643 20.0897 19.1817C20.1562 19.2155 20.2024 19.2791 20.2139 19.3527L20.3721 20.3613C20.4424 20.8091 20.3137 21.2635 20.019 21.608C19.7245 21.9526 19.2955 22.1501 18.8422 22.1501ZM17.9073 19.562L17.7707 20.4332C17.7215 20.7468 17.8116 21.0651 18.0179 21.3063C18.2244 21.5476 18.5247 21.686 18.8423 21.686C19.1598 21.686 19.4602 21.5476 19.6665 21.3063C19.8728 21.0651 19.963 20.7468 19.9138 20.4332L19.7734 19.5382C19.3618 19.3037 19.0488 18.9752 18.8622 18.7465C18.669 18.983 18.3405 19.3264 17.9073 19.562Z" fill="black"/>
<path d="M20.0809 21.2765C20.0287 21.2765 19.9767 21.2589 19.9343 21.2243C19.858 21.1621 19.8291 21.0585 19.8625 20.9659C19.9249 20.7921 19.9422 20.6128 19.914 20.4329L19.7727 19.532C19.688 19.4625 19.6621 19.3406 19.7166 19.2411C19.7782 19.1288 19.9192 19.0876 20.0317 19.1492L20.0318 19.1493C20.4337 19.3699 20.8403 19.418 21.2408 19.2922C21.3258 19.2655 21.4187 19.2898 21.4797 19.355C21.5407 19.4202 21.5589 19.5145 21.5266 19.5975C21.2525 20.3033 20.7821 20.8874 20.2018 21.2423C20.1645 21.2652 20.1226 21.2765 20.0809 21.2765ZM20.2768 19.7513L20.3724 20.3611C20.3803 20.4115 20.3858 20.462 20.3886 20.5123C20.5902 20.317 20.7668 20.0839 20.9107 19.8226C20.6988 19.8352 20.4873 19.8114 20.2768 19.7513Z" fill="black"/>
<path d="M17.5845 21.2221C17.5396 21.2221 17.4947 21.2091 17.4555 21.1829C16.9245 20.8277 16.4897 20.2684 16.2312 19.6081C16.1989 19.5256 16.2163 19.4321 16.2762 19.3667C16.336 19.3014 16.4277 19.276 16.5126 19.3008C16.8783 19.4082 17.2505 19.3704 17.6184 19.1882C17.7332 19.1313 17.8723 19.1783 17.9292 19.293C17.9679 19.3711 17.9587 19.4605 17.9127 19.5276L17.7707 20.433C17.7449 20.5978 17.7569 20.7621 17.8062 20.9213C17.8354 21.0151 17.8023 21.1172 17.7234 21.176C17.6822 21.2067 17.6334 21.2221 17.5845 21.2221ZM16.8436 19.8237C16.972 20.0566 17.1264 20.2677 17.3009 20.4492C17.3038 20.4199 17.3076 20.3905 17.3123 20.3611L17.4062 19.7621C17.2193 19.8112 17.0319 19.8318 16.8436 19.8237Z" fill="black"/>
<path d="M20.795 14.0428C20.6672 14.0428 20.5634 13.9394 20.563 13.8115C20.5623 13.5811 20.6513 13.3643 20.8136 13.2008C20.976 13.0374 21.1923 12.947 21.4227 12.9463H21.4256C21.6548 12.9463 21.8705 13.0352 22.0332 13.1969C22.1967 13.3592 22.287 13.5755 22.2878 13.8059C22.2882 13.9341 22.1847 14.0383 22.0565 14.0387C22.0563 14.0387 22.056 14.0387 22.0558 14.0387C21.928 14.0387 21.8241 13.9353 21.8238 13.8074C21.8234 13.701 21.7816 13.601 21.7062 13.5261C21.6307 13.4511 21.5315 13.4095 21.4242 13.4104C21.3178 13.4107 21.2178 13.4524 21.1428 13.528C21.0678 13.6034 21.0267 13.7036 21.0271 13.81C21.0275 13.9382 20.924 14.0424 20.7958 14.0428C20.7956 14.0428 20.7953 14.0428 20.795 14.0428Z" fill="black"/>
<path d="M16.9456 14.0407C16.8174 14.0407 16.7135 13.9369 16.7135 13.8087C16.7135 13.5891 16.5348 13.4104 16.3151 13.4104C16.0954 13.4104 15.9169 13.5891 15.9169 13.8087C15.9169 13.9369 15.813 14.0407 15.6848 14.0407C15.5566 14.0407 15.4528 13.9369 15.4528 13.8087C15.4528 13.3332 15.8396 12.9463 16.3151 12.9463C16.7907 12.9463 17.1776 13.3332 17.1776 13.8087C17.1776 13.9369 17.0738 14.0407 16.9456 14.0407Z" fill="black"/>
<path d="M17.7687 21.5941C17.7549 21.5941 17.7408 21.5929 17.7269 21.5903C15.861 21.2492 14.4216 20.0868 14.0598 18.6288C14.037 18.5369 14.0724 18.4404 14.149 18.3849C14.2258 18.3293 14.3285 18.3261 14.4086 18.3765C14.8027 18.6245 15.3052 18.8353 15.9023 19.0029C15.9284 19.0103 15.953 19.0221 15.975 19.0378C16.0813 19.1143 16.1988 19.1803 16.3241 19.234C16.3807 19.2583 16.4405 19.2795 16.5127 19.3006C16.5815 19.3209 16.6371 19.3718 16.6634 19.4386C16.8877 20.0115 17.2607 20.4939 17.7136 20.7969C17.7577 20.8264 17.7904 20.8703 17.8062 20.921C17.8402 21.0304 17.8912 21.1335 17.9579 21.2274C18.0124 21.3044 18.015 21.4068 17.9644 21.4864C17.9213 21.5543 17.847 21.5941 17.7687 21.5941ZM14.7127 19.0656C15.144 19.9348 16.0456 20.6338 17.193 20.984C16.8077 20.6563 16.4888 20.2162 16.2737 19.7116C16.2272 19.6957 16.1838 19.6789 16.1412 19.6606C15.9983 19.5993 15.8628 19.5249 15.7384 19.4389C15.3614 19.3312 15.0185 19.2064 14.7127 19.0656Z" fill="black"/>
<path d="M19.9114 21.5998C19.8326 21.5998 19.758 21.5596 19.7151 21.4914C19.6648 21.4115 19.668 21.3091 19.723 21.2324C19.7808 21.152 19.8276 21.0624 19.8622 20.9661C19.8801 20.9164 19.9144 20.8743 19.9595 20.8467C20.4535 20.5446 20.8564 20.0414 21.0938 19.4299C21.1193 19.3642 21.1732 19.3137 21.2405 19.2925C21.3025 19.273 21.3533 19.2546 21.4005 19.2343C21.5259 19.1806 21.6434 19.1146 21.7497 19.0383C21.7717 19.0224 21.7963 19.0106 21.8224 19.0033C22.4129 18.8375 22.9105 18.6301 23.3014 18.3866C23.3817 18.3367 23.4844 18.3403 23.5608 18.3962C23.6373 18.452 23.6722 18.5486 23.6491 18.6404C23.28 20.1035 21.8289 21.2637 19.952 21.5963C19.9384 21.5986 19.9249 21.5998 19.9114 21.5998ZM21.4852 19.6997C21.2735 20.2012 20.9612 20.6365 20.5812 20.9648C21.6952 20.6098 22.57 19.9244 22.995 19.0739C22.6938 19.2113 22.3565 19.3335 21.9863 19.4392C21.8618 19.525 21.7265 19.5996 21.5834 19.6609C21.5518 19.6744 21.5195 19.6872 21.4852 19.6997Z" fill="black"/>
<path d="M28.6529 22.603L28.3585 22.4141C28.3285 22.3949 28.323 22.3539 28.3458 22.3266C29.7438 20.655 29.1217 18.7612 28.9948 18.4256C28.9836 18.3959 28.9513 18.3809 28.9211 18.3909L28.6607 18.4766C28.627 18.4878 28.5917 18.4661 28.5847 18.4313C28.2896 16.9598 27.1639 16.5385 26.8135 16.4417C26.7678 16.429 26.7279 16.4725 26.7425 16.5175C27.7197 19.515 25.7012 21.7515 24.4835 22.7755C24.497 22.897 24.509 23.0201 24.5193 23.1447C25.3338 23.1368 26.1372 23.3297 26.5935 23.9758C27.9162 23.525 28.5161 22.8761 28.6674 22.6897C28.6895 22.6621 28.6826 22.622 28.6529 22.603Z" fill="#EAA250"/>
<path d="M26.5935 24.2078C26.5196 24.2078 26.4484 24.1725 26.404 24.1096C26.0544 23.6146 25.4227 23.3674 24.5216 23.3767C24.5209 23.3767 24.5201 23.3767 24.5194 23.3767C24.3989 23.3767 24.2982 23.2843 24.2882 23.164C24.278 23.0416 24.2663 22.9205 24.253 22.801C24.2445 22.7239 24.275 22.6477 24.3343 22.5979C25.5497 21.5759 27.4501 19.4362 26.5221 16.5894C26.4886 16.4868 26.5141 16.3747 26.5884 16.297C26.6622 16.2198 26.7722 16.1896 26.8754 16.2181C27.2333 16.3169 28.3917 16.7452 28.769 18.1968L28.8488 18.1705C28.9972 18.1214 29.1568 18.1976 29.212 18.3435C29.3518 18.7133 29.9623 20.5992 28.6461 22.323L28.7784 22.4079C28.8483 22.4527 28.8959 22.5253 28.909 22.6071C28.9221 22.6885 28.8997 22.7719 28.8477 22.8361C28.6854 23.0361 28.0485 23.7253 26.6684 24.1956C26.6437 24.2037 26.6185 24.2078 26.5935 24.2078ZM24.7315 22.9151C25.6018 22.9442 26.2536 23.208 26.6737 23.7011C27.5961 23.3611 28.1152 22.9327 28.3563 22.6884L28.2334 22.6095C28.1632 22.5645 28.1158 22.4914 28.1032 22.409C28.0906 22.3262 28.1143 22.2419 28.168 22.1776C29.336 20.781 29.0069 19.2241 28.8317 18.6646L28.7333 18.697C28.6546 18.723 28.5683 18.7139 28.4967 18.6721C28.4246 18.6301 28.3737 18.559 28.3573 18.477C28.1498 17.4424 27.4932 16.9776 27.0612 16.7795C27.3899 18.0395 27.2498 19.2865 26.6435 20.4908C26.1147 21.5408 25.3274 22.3541 24.7272 22.8726C24.7286 22.8868 24.73 22.9009 24.7315 22.9151Z" fill="black"/>
<path d="M20.3327 31.5737C20.3625 31.3998 20.409 31.2127 20.4819 31.0527C20.5979 30.7977 20.6648 30.5253 20.6648 30.2476V24.9457C20.6648 24.3082 20.3006 23.7529 19.7594 23.4524C19.4885 23.3277 19.1857 23.2557 18.8654 23.251C18.5452 23.2557 18.2423 23.3277 17.9715 23.4524C17.4304 23.7528 17.066 24.3082 17.066 24.9457V30.2476C17.066 30.5253 17.133 30.7977 17.249 31.0527C17.3218 31.2127 17.3684 31.3998 17.3981 31.5737C17.4045 31.6103 17.4061 31.6465 17.4041 31.6818C17.8587 31.845 18.3505 31.9364 18.8654 31.9364C19.3804 31.9364 19.8722 31.8451 20.3268 31.6818C20.3247 31.6465 20.3264 31.6103 20.3327 31.5737Z" fill="#F4DBCE"/>
<path d="M25.2827 30.6898L26.4373 27.9544C27.8568 23.9707 26.2095 23.1283 24.5186 23.1448C24.6883 25.1882 24.4188 27.615 23.0478 30.0297C22.8842 30.3179 22.9627 30.6741 23.2292 30.8822C23.3962 31.0128 23.5777 31.1776 23.7257 31.3683C23.9481 31.655 23.7745 32.0462 23.4372 32.1313L23.4545 32.1488H26.9184C27.3033 30.5075 25.2827 30.6898 25.2827 30.6898Z" fill="#EAA250"/>
<path d="M14.0046 31.3683C14.1527 31.1776 14.334 31.0128 14.5011 30.8822C14.7676 30.6741 14.8461 30.3179 14.6825 30.0297C13.3114 27.6151 13.042 25.1882 13.2117 23.1448C11.5209 23.1283 9.87363 23.9707 11.293 27.9544L12.4476 30.6898C12.4476 30.6898 10.427 30.5074 10.8119 32.1488H14.2758L14.2931 32.1313C13.9558 32.0462 13.7821 31.655 14.0046 31.3683Z" fill="#EAA250"/>
<path d="M23.4002 18.6699C23.0178 20.0052 21.6527 21.0591 19.9117 21.3676C19.6745 21.698 19.2879 21.9178 18.8424 21.9178C18.3943 21.9178 18.0056 21.6955 17.7687 21.362C16.0543 21.0487 14.7094 20.0113 14.3189 18.6967C13.5243 20.5587 12.0071 25.3182 14.6824 30.0296C14.846 30.3178 14.7675 30.6739 14.501 30.8821C14.334 31.0127 14.1525 31.1775 14.0046 31.3682C13.7537 31.6915 14.006 32.1486 14.4296 32.1486H16.8837C17.206 32.1486 17.4497 31.8747 17.3981 31.5733C17.3683 31.3995 17.3218 31.2124 17.2489 31.0524C17.1329 30.7974 17.066 30.525 17.066 30.2472V24.9453C17.066 23.9977 17.8692 23.2289 18.8654 23.2142C19.8616 23.229 20.6648 23.9977 20.6648 24.9453V30.2472C20.6648 30.525 20.5979 30.7974 20.4818 31.0524C20.4091 31.2124 20.3625 31.3995 20.3327 31.5733C20.2811 31.8748 20.5248 32.1486 20.8471 32.1486H23.3012C23.7247 32.1486 23.9771 31.6915 23.7262 31.3682C23.5782 31.1775 23.3968 31.0127 23.2297 30.8821C22.9633 30.6739 22.8847 30.3178 23.0484 30.0296C25.7368 25.295 24.1915 20.5123 23.4002 18.6699Z" fill="#EAA250"/>
<path d="M26.9186 32.3808H23.4548C23.3929 32.3808 23.3336 32.3561 23.29 32.3122L23.2727 32.2947C23.214 32.2356 23.1915 32.1495 23.2138 32.0692C23.2361 31.9889 23.2998 31.9267 23.3806 31.9064C23.474 31.8828 23.5507 31.8142 23.5804 31.7275C23.5987 31.6744 23.607 31.5937 23.5426 31.5107C23.4259 31.3604 23.2725 31.2105 23.0865 31.0651C22.728 30.785 22.6269 30.3014 22.8462 29.9152C24.0051 27.8743 24.4901 25.6028 24.2875 23.1641C24.2822 23.0999 24.3038 23.0363 24.3473 22.9886C24.3909 22.9409 24.452 22.9135 24.5165 22.9129C25.5753 22.9025 26.3362 23.2125 26.7791 23.834C27.3863 24.6863 27.3449 26.0988 26.656 28.0324C26.6545 28.0366 26.6529 28.0406 26.6512 28.0447L25.633 30.4569C26.0093 30.4784 26.5822 30.5801 26.9229 30.972C27.1893 31.2788 27.2639 31.6926 27.1445 32.2019C27.1199 32.3066 27.0264 32.3808 26.9186 32.3808ZM24.005 31.9167H26.7255C26.76 31.6448 26.7096 31.4345 26.5732 31.277C26.2649 30.9209 25.5517 30.8993 25.3034 30.9209C25.2233 30.9282 25.1433 30.892 25.0954 30.8263C25.0475 30.7605 25.0374 30.6745 25.0691 30.5996L26.2212 27.8702C26.8542 26.0912 26.9147 24.8237 26.4012 24.1031C26.0847 23.6588 25.5361 23.4166 24.769 23.381C24.9258 25.818 24.4152 28.0921 23.2498 30.1442C23.1435 30.3316 23.1938 30.5599 23.3723 30.6993C23.5884 30.8682 23.7691 31.0454 23.9092 31.2259C24.0566 31.4158 24.0968 31.6537 24.0194 31.8785C24.0149 31.8914 24.0102 31.904 24.005 31.9167Z" fill="black"/>
<path d="M14.2757 32.3809H10.8118C10.704 32.3809 10.6105 32.3068 10.5859 32.2019C10.4664 31.6926 10.541 31.2789 10.8075 30.972C11.1481 30.58 11.721 30.4784 12.0973 30.4569L11.0792 28.0447C11.0774 28.0406 11.0758 28.0365 11.0744 28.0324C10.3855 26.0987 10.344 24.6861 10.9513 23.834C11.3941 23.2125 12.1525 22.903 13.2138 22.9128C13.2783 22.9135 13.3396 22.9409 13.383 22.9886C13.4265 23.0363 13.4481 23.0999 13.4428 23.1641C13.2403 25.6028 13.7253 27.8743 14.8842 29.9152C15.1035 30.3014 15.0025 30.7851 14.6439 31.0652C14.458 31.2105 14.3045 31.3605 14.1878 31.5107C14.1234 31.5938 14.1316 31.6746 14.1499 31.7276C14.1798 31.8144 14.2564 31.8829 14.3498 31.9064C14.4306 31.9268 14.4943 31.989 14.5166 32.0692C14.5388 32.1495 14.5165 32.2357 14.4577 32.2948L14.4403 32.3122C14.3968 32.3561 14.3375 32.3809 14.2757 32.3809ZM11.0049 31.9168H13.7255C13.7204 31.9043 13.7156 31.8916 13.7112 31.8787C13.6338 31.6539 13.6738 31.416 13.8213 31.2261C13.9614 31.0456 14.1421 30.8683 14.3582 30.6995C14.5367 30.56 14.5871 30.3318 14.4807 30.1444C13.3154 28.0922 12.8048 25.8182 12.9616 23.3812C12.1942 23.4166 11.6458 23.659 11.3293 24.1032C10.8159 24.8239 10.8764 26.0912 11.5094 27.8704L12.6615 30.5997C12.6931 30.6748 12.6831 30.761 12.6351 30.8268C12.5871 30.8926 12.5079 30.9287 12.4268 30.9211C12.1783 30.8994 11.4657 30.9212 11.1573 31.2772C11.0209 31.4346 10.9705 31.6449 11.0049 31.9168Z" fill="black"/>
<path d="M18.8654 32.1682C18.3394 32.1682 17.8214 32.078 17.3256 31.8999C17.2287 31.8651 17.1664 31.7706 17.1724 31.6679C17.1735 31.6492 17.1725 31.6306 17.1693 31.6124C17.1375 31.4266 17.0932 31.2703 17.0377 31.1484C16.9025 30.8513 16.834 30.548 16.834 30.2472V24.9452C16.834 24.25 17.2267 23.6001 17.8588 23.2491C17.8639 23.2462 17.8691 23.2436 17.8744 23.2412C18.1842 23.0986 18.5164 23.0237 18.8619 23.0186C19.2142 23.0237 19.5464 23.0986 19.8563 23.2412C19.8616 23.2436 19.8668 23.2463 19.8719 23.2491C20.504 23.6002 20.8967 24.2501 20.8967 24.9452V30.2472C20.8967 30.548 20.8281 30.8513 20.6929 31.1484C20.6374 31.2703 20.5932 31.4265 20.5613 31.6124C20.5582 31.6306 20.5572 31.6492 20.5583 31.6679C20.5643 31.7706 20.5019 31.8651 20.405 31.8999C19.9095 32.078 19.3914 32.1682 18.8654 32.1682ZM17.6228 31.5108C18.4275 31.7676 19.3033 31.7676 20.1081 31.5108C20.1465 31.2955 20.2011 31.109 20.2706 30.9563C20.3782 30.7199 20.4327 30.4814 20.4327 30.2473V24.9453C20.4327 24.4213 20.1346 23.9293 19.6542 23.6592C19.4057 23.5461 19.1392 23.4867 18.8619 23.4826C18.5913 23.4867 18.3248 23.5462 18.0765 23.6592C17.5961 23.9294 17.298 24.4213 17.298 24.9453V30.2473C17.298 30.4814 17.3525 30.7199 17.46 30.9563C17.5297 31.1089 17.5843 31.2954 17.6228 31.5108Z" fill="black"/>
<path d="M23.301 32.381H20.8469C20.6192 32.381 20.4063 32.2833 20.2628 32.1131C20.1264 31.9514 20.0685 31.7405 20.1038 31.5344C20.1424 31.3091 20.1985 31.1146 20.2705 30.9564C20.3781 30.7201 20.4326 30.4815 20.4326 30.2474V24.9454C20.4326 24.1316 19.728 23.4591 18.8619 23.4464C18.0026 23.4592 17.298 24.1317 17.298 24.9454V30.2474C17.298 30.4815 17.3525 30.7201 17.46 30.9564C17.5321 31.1146 17.5881 31.3091 17.6267 31.5344C17.662 31.7405 17.6041 31.9514 17.4677 32.1131C17.3241 32.2833 17.1113 32.381 16.8836 32.381H14.4295C14.134 32.381 13.8718 32.2204 13.7452 31.9619C13.6253 31.7169 13.6537 31.4419 13.8212 31.2261C13.9613 31.0457 14.1419 30.8684 14.358 30.6995C14.5365 30.56 14.5869 30.3318 14.4805 30.1444C11.7498 25.3353 13.3085 20.473 14.1054 18.6058C14.1438 18.5158 14.2352 18.4602 14.332 18.4652C14.4297 18.4708 14.5134 18.537 14.5411 18.6308C14.9047 19.8549 16.1879 20.8373 17.8103 21.1339C17.8698 21.1448 17.9227 21.1785 17.9578 21.2278C18.1644 21.5189 18.4868 21.6859 18.8422 21.6859C19.195 21.6859 19.5161 21.5206 19.723 21.2324C19.7583 21.1832 19.8115 21.1498 19.8711 21.1393C21.5224 20.8467 22.82 19.8523 23.1769 18.6062C23.2039 18.5119 23.2874 18.4447 23.3853 18.4384C23.4829 18.4324 23.5745 18.4883 23.6132 18.5784C24.4165 20.4488 25.9894 25.3199 23.2499 30.1443C23.1435 30.3317 23.1938 30.56 23.3723 30.6994C23.5885 30.8683 23.7691 31.0455 23.9093 31.226C24.0768 31.4418 24.1051 31.7168 23.9852 31.9618C23.8587 32.2204 23.5965 32.381 23.301 32.381ZM18.8618 22.9824C19.9868 22.9988 20.8966 23.8795 20.8966 24.9454V30.2474C20.8966 30.5483 20.828 30.8515 20.6928 31.1486C20.6373 31.2706 20.593 31.4267 20.5612 31.6127C20.5489 31.6847 20.5689 31.7562 20.6175 31.8139C20.6726 31.8794 20.7562 31.9169 20.8468 31.9169H23.3009C23.4406 31.9169 23.5307 31.8347 23.5684 31.7578C23.5923 31.7088 23.6209 31.6115 23.5426 31.5107C23.426 31.3604 23.2725 31.2105 23.0865 31.0652C22.7281 30.785 22.627 30.3014 22.8462 29.9152C25.2548 25.6737 24.1948 21.3821 23.4017 19.294C22.8296 20.4185 21.5771 21.2836 20.0411 21.5797C19.748 21.9385 19.3066 22.15 18.8421 22.15C18.3741 22.15 17.9307 21.9361 17.6376 21.5735C16.1301 21.2741 14.8938 20.4197 14.3203 19.3154C13.5339 21.3984 12.4817 25.6846 14.8839 29.9152C15.1033 30.3014 15.0022 30.7851 14.6436 31.0653C14.4577 31.2105 14.3042 31.3605 14.1875 31.5108C14.1093 31.6116 14.1379 31.7089 14.1618 31.7579C14.1995 31.8348 14.2894 31.917 14.4292 31.917H16.8833C16.9739 31.917 17.0576 31.8795 17.1127 31.814C17.1613 31.7563 17.1814 31.6848 17.1689 31.6128C17.1371 31.4269 17.0928 31.2707 17.0373 31.1487C16.9021 30.8516 16.8336 30.5483 16.8336 30.2475V24.9455C16.8338 23.8795 17.7435 22.9988 18.8618 22.9824Z" fill="black"/>
</svg>
