<svg width="30" height="30" viewBox="0 0 30 30" fill="none" xmlns="http://www.w3.org/2000/svg">
<path d="M15.9375 19.9H16.75C17.5625 19.9 18.2375 19.175 18.2375 18.3C18.2375 17.2125 17.85 17 17.2125 16.775L15.95 16.3375V19.9H15.9375Z" fill="white"/>
<path d="M14.9625 2.375C8.06252 2.4 2.47502 8.0125 2.50002 14.9125C2.52502 21.8125 8.13752 27.4 15.0375 27.375C21.9375 27.35 27.525 21.7375 27.5 14.8375C27.475 7.9375 21.8625 2.3625 14.9625 2.375ZM17.825 15C18.8 15.3375 20.1125 16.0625 20.1125 18.3C20.1125 20.225 18.6 21.775 16.75 21.775H15.9375V22.5C15.9375 23.0125 15.5125 23.4375 15 23.4375C14.4875 23.4375 14.0625 23.0125 14.0625 22.5V21.775H13.6125C11.5625 21.775 9.90002 20.05 9.90002 17.925C9.90002 17.4125 10.325 16.9875 10.8375 16.9875C11.35 16.9875 11.775 17.4125 11.775 17.925C11.775 19.0125 12.6 19.9 13.6125 19.9H14.0625V15.675L12.175 15C11.2 14.6625 9.88752 13.9375 9.88752 11.7C9.88752 9.775 11.4 8.225 13.25 8.225H14.0625V7.5C14.0625 6.9875 14.4875 6.5625 15 6.5625C15.5125 6.5625 15.9375 6.9875 15.9375 7.5V8.225H16.3875C18.4375 8.225 20.1 9.95 20.1 12.075C20.1 12.5875 19.675 13.0125 19.1625 13.0125C18.65 13.0125 18.225 12.5875 18.225 12.075C18.225 10.9875 17.4 10.1 16.3875 10.1H15.9375V14.325L17.825 15Z" fill="white"/>
<path d="M11.775 11.7125C11.775 12.8 12.1625 13.0125 12.8 13.2375L14.0625 13.675V10.1H13.25C12.4375 10.1 11.775 10.825 11.775 11.7125Z" fill="white"/>
</svg>
