<svg width="20" height="21" viewBox="0 0 20 21" fill="none" xmlns="http://www.w3.org/2000/svg">
<path d="M9.99999 10.9443C10.4602 10.9443 10.8333 10.5712 10.8333 10.111C10.8333 9.65077 10.4602 9.27767 9.99999 9.27767C9.53975 9.27767 9.16666 9.65077 9.16666 10.111C9.16666 10.5712 9.53975 10.9443 9.99999 10.9443Z" stroke="#A4A7AE" stroke-width="1.5" stroke-linecap="round" stroke-linejoin="round"/>
<path d="M9.99999 5.111C10.4602 5.111 10.8333 4.73791 10.8333 4.27767C10.8333 3.81743 10.4602 3.44434 9.99999 3.44434C9.53975 3.44434 9.16666 3.81743 9.16666 4.27767C9.16666 4.73791 9.53975 5.111 9.99999 5.111Z" stroke="#A4A7AE" stroke-width="1.5" stroke-linecap="round" stroke-linejoin="round"/>
<path d="M9.99999 16.7777C10.4602 16.7777 10.8333 16.4046 10.8333 15.9443C10.8333 15.4841 10.4602 15.111 9.99999 15.111C9.53975 15.111 9.16666 15.4841 9.16666 15.9443C9.16666 16.4046 9.53975 16.7777 9.99999 16.7777Z" stroke="#A4A7AE" stroke-width="1.5" stroke-linecap="round" stroke-linejoin="round"/>
</svg>
