<svg width="17" height="16" viewBox="0 0 17 16" fill="none" xmlns="http://www.w3.org/2000/svg">
<path d="M7.83337 2.66714H5.03337C3.91327 2.66714 3.35322 2.66714 2.92539 2.88513C2.54907 3.07688 2.24311 3.38284 2.05136 3.75916C1.83337 4.18699 1.83337 4.74704 1.83337 5.86714V11.4671C1.83337 12.5872 1.83337 13.1473 2.05136 13.5751C2.24311 13.9514 2.54907 14.2574 2.92539 14.4492C3.35322 14.6671 3.91327 14.6671 5.03337 14.6671H10.6334C11.7535 14.6671 12.3135 14.6671 12.7414 14.4492C13.1177 14.2574 13.4236 13.9514 13.6154 13.5751C13.8334 13.1473 13.8334 12.5872 13.8334 11.4671V8.66714M5.83336 10.6671H6.94972C7.27584 10.6671 7.4389 10.6671 7.59235 10.6303C7.7284 10.5976 7.85846 10.5438 7.97775 10.4707C8.11231 10.3882 8.22761 10.2729 8.45821 10.0423L14.8334 3.66714C15.3857 3.11486 15.3857 2.21943 14.8334 1.66714C14.2811 1.11486 13.3857 1.11486 12.8334 1.66714L6.4582 8.04231C6.22759 8.27291 6.11229 8.38821 6.02984 8.52276C5.95673 8.64206 5.90286 8.77212 5.8702 8.90817C5.83336 9.06162 5.83336 9.22468 5.83336 9.5508V10.6671Z" stroke="white" stroke-width="1.5" stroke-linecap="round" stroke-linejoin="round"/>
</svg>
