<svg width="39" height="39" viewBox="0 0 39 39" fill="none" xmlns="http://www.w3.org/2000/svg">
<rect y="0.20459" width="38.3406" height="38.4481" rx="19.1703" fill="#CCFFDC"/>
<path d="M22.6966 20.436C21.7743 20.7279 20.5853 20.944 19.0808 20.944C17.5804 20.944 16.3939 20.7291 15.4726 20.4385C12.1055 24.1989 15.5448 27.8949 16.6247 28.8969C16.7486 29.0118 16.7111 29.2063 16.5537 29.2759C16.1611 29.4496 16.0244 29.7259 15.9878 29.965C15.95 30.2133 16.1614 30.4336 16.428 30.4336H18.0113C18.6782 30.4336 18.9789 30.0213 19.0596 29.4118H19.0944C19.1751 30.0213 19.4758 30.4336 20.1427 30.4336H21.7432C22.0098 30.4336 22.2212 30.2132 22.1834 29.965C22.1469 29.7259 22.0102 29.4496 21.6176 29.2759C21.4601 29.2063 21.4227 29.0118 21.5466 28.8969C22.6267 27.8946 26.0674 24.1974 22.6966 20.436Z" fill="#F9BD55"/>
<path d="M19.1675 23.0679H18.9869C18.2942 23.0679 17.7327 23.6294 17.7327 24.3221V24.342C17.7327 24.342 18.9816 27.0179 19.0772 28.8226C19.1727 27.0178 20.4217 24.342 20.4217 24.342C20.4327 23.6416 19.868 23.0679 19.1675 23.0679Z" fill="#F4DBCE"/>
<path d="M19.0771 28.8223C19.0696 28.9644 19.0691 29.1012 19.0771 29.2308C19.0851 29.1013 19.0847 28.9645 19.0771 28.8223Z" fill="#F4DBCE"/>
<path d="M25.158 16.4248C25.7583 16.4248 26.4334 15.8698 26.4334 15.8698C25.5367 15.7202 25.3523 14.8487 24.872 13.7293C26.8466 12.7429 26.346 9.71048 26.0744 8.56134C26.0392 8.41245 25.8473 8.37457 25.7554 8.49689C25.5188 8.81204 25.015 9.24486 23.9641 9.4874C22.949 9.72161 22.3782 10.2442 22.0743 10.6518C20.6463 10.0769 19.0811 10.1616 19.0811 10.1616C19.0811 10.1616 17.5158 10.0769 16.0879 10.6518C15.7838 10.2442 15.2129 9.72161 14.1979 9.4874C13.1469 9.24486 12.6432 8.81204 12.4065 8.49689C12.3146 8.37457 12.1228 8.41253 12.0876 8.56134C11.8159 9.71039 11.3153 12.7429 13.29 13.7293C12.8097 14.8486 12.6253 15.7201 11.7285 15.8698C11.7285 15.8698 12.4037 16.4248 13.0039 16.4248C13.0039 16.4248 12.7039 17.1383 11.8785 17.2968C11.8785 17.2968 12.3287 18.0896 13.7542 18.0896C13.7542 18.0896 13.304 18.7238 12.7788 18.8824C12.7788 18.8824 14.4294 20.9436 19.081 20.9436C23.7326 20.9436 25.3831 18.8824 25.3831 18.8824C24.858 18.7238 24.4078 18.0896 24.4078 18.0896C25.8332 18.0896 26.2834 17.2968 26.2834 17.2968C25.4581 17.1383 25.158 16.4248 25.158 16.4248Z" fill="#F9BD55"/>
<path d="M19.1263 17.1064C19.1263 17.1064 19.1235 18.003 18.0869 18.0785C18.1791 18.9573 18.609 19.6225 19.1263 19.6225C19.6435 19.6225 20.0735 18.9573 20.1656 18.0785C19.129 18.003 19.1263 17.1064 19.1263 17.1064Z" fill="#52565B"/>
<path d="M18.434 19.1585C18.6194 19.4471 18.8612 19.6225 19.1262 19.6225C19.3912 19.6225 19.6329 19.4471 19.8184 19.1585C19.633 18.8695 19.3913 18.6938 19.1262 18.6938C18.861 18.6938 18.6193 18.8695 18.434 19.1585Z" fill="#FD605B"/>
<path d="M23.5989 29.1664C24.4263 28.7318 27.1138 27.0327 24.085 24.5947C23.7709 26.6409 22.2116 28.2797 21.5465 28.8967C21.4226 29.0117 21.4601 29.2062 21.6176 29.2758C22.0101 29.4495 22.1469 29.7257 22.1833 29.9649C22.2212 30.2132 22.0098 30.4335 21.7431 30.4335H23.501C23.7712 30.4335 23.9806 30.2078 23.9399 29.9565C23.9092 29.767 23.8149 29.5554 23.5804 29.3904C23.4982 29.3327 23.5093 29.2135 23.5989 29.1664Z" fill="#F9BD55"/>
<path d="M26.9918 20.7329C26.3773 20.6455 25.816 21.1037 25.7874 21.7237C25.715 23.2937 25.2585 24.3957 24.7041 25.1633C25.0728 25.5578 25.2937 25.9296 25.4034 26.2763C26.8385 25.0152 27.539 23.2255 27.8617 22.0614C28.0322 21.4467 27.6233 20.8228 26.9918 20.7329Z" fill="#F9BD55"/>
<path d="M26.0744 8.56169C26.0721 8.55204 26.0675 8.54424 26.064 8.53564C25.8731 8.92243 25.16 10.2197 24.0154 10.6012C22.6649 11.0514 23.4152 12.0266 23.4152 12.0266L23.04 12.2517C23.04 12.2517 23.2651 13.302 24.1654 13.302L24.9308 13.6971C26.8348 12.6794 26.3432 9.6989 26.0744 8.56169Z" fill="#F98080"/>
<path d="M14.1467 10.6007C13.0021 10.2192 12.289 8.92194 12.0981 8.53516C12.0946 8.54384 12.09 8.55164 12.0877 8.5612C11.8189 9.69841 11.3273 12.6789 13.2313 13.6967L13.9967 13.3016C14.897 13.3016 15.1221 12.2513 15.1221 12.2513L14.7469 12.0262C14.7469 12.0262 15.4972 11.0509 14.1467 10.6007Z" fill="#F98080"/>
<path d="M19.8759 16.183C19.8759 16.5483 19.4915 17.0649 19.1262 17.0649C18.7609 17.0649 18.3766 16.5483 18.3766 16.183C18.3766 15.8177 18.7609 16.0948 19.1262 16.0948C19.4915 16.0948 19.8759 15.8177 19.8759 16.183Z" fill="#52565B"/>
<path d="M19.0823 23.591C19.618 23.591 20.0523 23.1567 20.0523 22.621C20.0523 22.0852 19.618 21.6509 19.0823 21.6509C18.5465 21.6509 18.1122 22.0852 18.1122 22.621C18.1122 23.1567 18.5465 23.591 19.0823 23.591Z" fill="#F9E63A"/>
<path d="M19.0809 20.9437C17.7698 20.9437 16.6984 20.7795 15.8342 20.5442C16.0791 21.2203 17.1233 21.7542 18.4516 21.8845C18.6212 21.7391 18.8412 21.6507 19.0821 21.6507C19.3229 21.6507 19.5429 21.7391 19.7125 21.8845C21.0413 21.7541 22.0859 21.2199 22.3302 20.5435C21.4656 20.7792 20.3934 20.9437 19.0809 20.9437Z" fill="#039BE6"/>
<path d="M14.5723 29.1664C13.7449 28.7318 11.0574 27.0327 14.0862 24.5947C14.4003 26.6409 15.9596 28.2797 16.6247 28.8967C16.7486 29.0117 16.7111 29.2062 16.5536 29.2758C16.1611 29.4495 16.0244 29.7257 15.9879 29.9649C15.95 30.2132 16.1614 30.4335 16.4281 30.4335H14.6702C14.4 30.4335 14.1906 30.2078 14.2313 29.9565C14.262 29.767 14.3563 29.5554 14.5908 29.3904C14.673 29.3327 14.6619 29.2135 14.5723 29.1664Z" fill="#F9BD55"/>
<path d="M23.5018 30.6528H21.744C21.6229 30.6528 21.5247 30.5547 21.5247 30.4336C21.5247 30.3125 21.6229 30.2144 21.744 30.2144C21.8158 30.2144 21.882 30.1852 21.9257 30.1343C21.9499 30.1061 21.9768 30.0595 21.9675 29.998C21.9314 29.7613 21.7882 29.5907 21.5297 29.4763C21.3861 29.4128 21.2855 29.2852 21.2603 29.1348C21.2357 28.9881 21.2873 28.8389 21.3982 28.7361C22.0398 28.1407 23.565 26.5421 23.8691 24.5615C23.881 24.4839 23.9333 24.4188 24.0064 24.3904C24.0794 24.362 24.1621 24.3748 24.2231 24.424C25.287 25.2802 25.7841 26.1482 25.7008 27.0038C25.5875 28.1678 24.4245 28.9603 23.8168 29.2981C24.0006 29.4632 24.1174 29.6762 24.1571 29.9215C24.1858 30.0985 24.1344 30.2795 24.0162 30.4185C23.8894 30.5674 23.7019 30.6528 23.5018 30.6528ZM22.3757 30.2144H23.5017C23.5731 30.2144 23.6389 30.1853 23.6822 30.1344C23.7026 30.1105 23.7352 30.0599 23.7242 29.9916C23.6956 29.8151 23.6076 29.6772 23.4549 29.5698C23.3544 29.499 23.2991 29.3844 23.3069 29.2631C23.3149 29.1395 23.3862 29.0309 23.4976 28.9723C23.9954 28.7108 25.1641 27.9913 25.2643 26.9614C25.3252 26.3361 24.9776 25.6791 24.2302 25.0053C23.7875 26.9439 22.3309 28.4685 21.6964 29.0574C21.6924 29.0633 21.6944 29.0699 21.707 29.0754C22.2061 29.2962 22.3598 29.663 22.4007 29.9318C22.4154 30.0273 22.4063 30.1241 22.3757 30.2144ZM23.7016 29.3606C23.7017 29.3605 23.7017 29.3605 23.7016 29.3606V29.3606Z" fill="black"/>
<path d="M16.4282 30.6528H14.6704C14.4702 30.6528 14.2828 30.5674 14.1561 30.4186C14.0379 30.2797 13.9865 30.0986 14.0152 29.9216C14.0549 29.6764 14.1716 29.4633 14.3555 29.2983C13.7477 28.9604 12.5847 28.1679 12.4714 27.0039C12.3881 26.1483 12.8853 25.2803 13.9491 24.424C14.01 24.3748 14.0927 24.3619 14.1658 24.3904C14.2389 24.4188 14.2913 24.484 14.3032 24.5615C14.6073 26.5422 16.1324 28.1407 16.7741 28.7361C16.885 28.839 16.9366 28.9881 16.912 29.1348C16.8868 29.2852 16.7861 29.4129 16.6426 29.4764C16.3842 29.5907 16.241 29.7613 16.2049 29.998C16.1955 30.0596 16.2224 30.106 16.2466 30.1343C16.2903 30.1852 16.3566 30.2143 16.4284 30.2143C16.5495 30.2143 16.6476 30.3124 16.6476 30.4335C16.6476 30.5546 16.5493 30.6528 16.4282 30.6528ZM13.9418 25.0054C13.1944 25.6792 12.8468 26.3361 12.9077 26.9615C13.008 27.9915 14.1766 28.7108 14.6744 28.9723C14.7859 29.0308 14.8571 29.1395 14.8651 29.263C14.8729 29.3844 14.8177 29.4991 14.7171 29.5698C14.5645 29.6772 14.4764 29.8151 14.4478 29.9917C14.4368 30.0599 14.4695 30.1104 14.4898 30.1344C14.5331 30.1853 14.5988 30.2144 14.6703 30.2144H15.7964C15.7658 30.124 15.7567 30.0274 15.7713 29.9319C15.8122 29.6631 15.966 29.2962 16.4651 29.0754C16.4776 29.0699 16.4796 29.0634 16.4795 29.0619C15.8414 28.4689 14.3846 26.944 13.9418 25.0054Z" fill="black"/>
<path d="M20.1432 30.6527C19.6762 30.6527 19.328 30.4775 19.1081 30.1322C18.7081 29.5042 18.7793 28.3146 19.3196 26.5962C19.7112 25.3507 20.2183 24.2599 20.2233 24.2491C20.2746 24.1394 20.4049 24.092 20.5146 24.1431C20.6243 24.1943 20.6718 24.3247 20.6206 24.4344C20.077 25.5993 18.812 28.8514 19.4778 29.8967C19.6139 30.1103 19.8315 30.2141 20.1431 30.2141C20.2642 30.2141 20.3623 30.3123 20.3623 30.4334C20.3623 30.5544 20.2643 30.6527 20.1432 30.6527Z" fill="black"/>
<path d="M18.0117 30.6526C17.8906 30.6526 17.7925 30.5545 17.7925 30.4334C17.7925 30.3123 17.8906 30.2142 18.0117 30.2142C18.3234 30.2142 18.541 30.1103 18.677 29.8967C19.3427 28.8514 18.0778 25.5993 17.5343 24.4344C17.4831 24.3247 17.5305 24.1943 17.6402 24.1431C17.75 24.092 17.8804 24.1394 17.9315 24.2491C17.9366 24.2599 18.4436 25.3507 18.8352 26.5962C19.3755 28.3145 19.4467 29.5042 19.0468 30.1323C18.8269 30.4775 18.4786 30.6526 18.0117 30.6526Z" fill="black"/>
<path d="M25.403 26.4957C25.3834 26.4957 25.3636 26.493 25.3442 26.4876C25.2729 26.4677 25.2163 26.4131 25.1941 26.3426C25.0881 26.0079 24.8693 25.6615 24.5437 25.3131C24.4721 25.2366 24.4648 25.12 24.5261 25.0351C25.1561 24.1628 25.5067 23.0454 25.568 21.7137C25.5844 21.3589 25.7514 21.0248 26.0261 20.7973C26.3031 20.5678 26.6664 20.4656 27.0223 20.516C27.386 20.5678 27.7098 20.7736 27.9109 21.0808C28.1118 21.3878 28.1708 21.7666 28.0727 22.1203C27.7212 23.3881 26.9978 25.167 25.5479 26.4412C25.5073 26.4767 25.4556 26.4957 25.403 26.4957ZM24.983 25.1461C25.1993 25.3961 25.3684 25.648 25.4883 25.899C26.7053 24.7151 27.3339 23.1438 27.6502 22.003C27.7145 21.771 27.6758 21.5223 27.544 21.3209C27.412 21.1192 27.1993 20.9841 26.9606 20.9501C26.7267 20.9171 26.488 20.9843 26.3058 21.135C26.1234 21.2861 26.0169 21.4988 26.0061 21.734C25.9439 23.0802 25.5999 24.2269 24.983 25.1461Z" fill="black"/>
<path d="M19.0812 21.1631C14.3784 21.1631 12.678 19.1071 12.608 19.0196C12.5624 18.9627 12.5482 18.8871 12.5697 18.8175C12.5914 18.7481 12.646 18.6937 12.7157 18.6727C12.9328 18.6072 13.1416 18.4383 13.299 18.2817C12.1161 18.1341 11.7068 17.4382 11.6881 17.4052C11.6532 17.3438 11.6501 17.2693 11.6797 17.2051C11.7093 17.1409 11.768 17.095 11.8374 17.0817C12.238 17.0047 12.4941 16.7773 12.6412 16.594C12.098 16.4528 11.6142 16.0594 11.5896 16.0392C11.5232 15.9846 11.4948 15.8963 11.517 15.8132C11.5391 15.7301 11.6079 15.6677 11.6926 15.6536C12.2925 15.5535 12.5088 15.0785 12.8695 14.1771C12.9151 14.0632 12.9618 13.9467 13.0114 13.8266C12.1994 13.3402 11.7343 12.4662 11.6281 11.2251C11.5368 10.1567 11.7432 9.06612 11.8745 8.51106C11.9104 8.35927 12.0274 8.2451 12.1798 8.21327C12.333 8.18118 12.4875 8.2394 12.582 8.36541C12.7993 8.6546 13.2646 9.04709 14.2474 9.27385C15.2245 9.49938 15.8169 9.98104 16.1595 10.3892C17.5206 9.88581 18.9269 9.93501 19.0812 9.9422C19.2358 9.93492 20.6419 9.8859 22.0028 10.3892C22.3455 9.98104 22.9378 9.49938 23.915 9.27385C24.8978 9.04709 25.3632 8.6546 25.5804 8.36532C25.675 8.2394 25.8296 8.18136 25.9826 8.21327C26.135 8.2451 26.252 8.35927 26.2879 8.51106C26.4191 9.06612 26.6256 10.1567 26.5342 11.2251C26.428 12.4662 25.9629 13.3402 25.151 13.8266C25.2006 13.9467 25.2472 14.0632 25.2928 14.1771C25.6536 15.0785 25.8698 15.5535 26.4698 15.6536C26.5546 15.6677 26.6232 15.7301 26.6454 15.8132C26.6676 15.8962 26.6393 15.9846 26.5728 16.0392C26.5482 16.0594 26.0644 16.4528 25.5212 16.594C25.6682 16.7773 25.9243 17.0047 26.3249 17.0817C26.3944 17.095 26.453 17.1409 26.4826 17.2051C26.5121 17.2693 26.5091 17.3438 26.4742 17.4052C26.4555 17.4382 26.0462 18.1341 24.8633 18.2817C25.0207 18.4383 25.2294 18.6072 25.4466 18.6727C25.5163 18.6938 25.5709 18.7481 25.5926 18.8175C25.6141 18.8871 25.5998 18.9627 25.5543 19.0196C25.4843 19.1072 23.7839 21.1631 19.0812 21.1631ZM13.1556 18.9508C13.7177 19.4573 15.4844 20.7246 19.0812 20.7246C22.6941 20.7246 24.4501 19.4585 25.008 18.9516C24.5687 18.69 24.2457 18.2398 24.2292 18.2166C24.1817 18.1498 24.1755 18.062 24.2132 17.9891C24.2508 17.9163 24.3259 17.8705 24.4079 17.8705C25.2075 17.8705 25.6632 17.6086 25.8945 17.4087C25.2253 17.1325 24.9683 16.5388 24.956 16.5099C24.9276 16.4422 24.9349 16.3647 24.9755 16.3035C25.0161 16.2423 25.0847 16.2056 25.1582 16.2056C25.4274 16.2056 25.7251 16.0679 25.9483 15.9364C25.4086 15.6467 25.1624 15.0313 24.8856 14.34C24.8182 14.1715 24.7484 13.9972 24.6706 13.8159C24.6248 13.7092 24.6702 13.5853 24.7741 13.5334C26.5502 12.6461 26.1585 9.9151 25.88 8.69336C25.6013 9.03253 25.0575 9.46027 24.0134 9.70115C23.0584 9.9215 22.5274 10.4111 22.25 10.7829C22.1905 10.8627 22.0849 10.8924 21.9924 10.8553C20.6287 10.3063 19.108 10.3798 19.0928 10.3806C19.085 10.381 19.077 10.381 19.0693 10.3806C19.0543 10.3798 17.5332 10.3063 16.1696 10.8553C16.0772 10.8924 15.9715 10.8627 15.912 10.7829C15.6346 10.4111 15.1036 9.9215 14.1486 9.70115C13.1044 9.46018 12.5606 9.03253 12.282 8.69336C12.0035 9.91519 11.6118 12.6462 13.3879 13.5334C13.4918 13.5853 13.5373 13.7092 13.4914 13.8159C13.4136 13.9972 13.3438 14.1715 13.2764 14.34C12.9997 15.0313 12.7535 15.6467 12.2137 15.9364C12.4369 16.0679 12.7347 16.2056 13.004 16.2056C13.0773 16.2056 13.1459 16.2423 13.1866 16.3035C13.2272 16.3647 13.2345 16.4422 13.2061 16.5099C13.1939 16.5389 12.9368 17.1327 12.2674 17.4088C12.4983 17.6082 12.9541 17.8705 13.7543 17.8705C13.8363 17.8705 13.9114 17.9163 13.949 17.9891C13.9867 18.062 13.9805 18.1498 13.933 18.2166C13.9167 18.2398 13.5943 18.6891 13.1556 18.9508Z" fill="black"/>
<path d="M24.9313 13.9163C24.853 13.9163 24.7773 13.8743 24.7378 13.8003C24.6807 13.6935 24.7211 13.5608 24.8278 13.5037C25.5785 13.1023 26.0063 12.3126 26.0992 11.1565C26.1575 10.432 26.071 9.69457 25.9721 9.14503C25.6113 9.71623 24.9725 10.5133 24.0851 10.809C23.7238 10.9295 23.509 11.0939 23.4467 11.2977C23.3594 11.583 23.5869 11.8898 23.5892 11.8929C23.6273 11.9424 23.6424 12.006 23.6308 12.0674C23.6193 12.1288 23.5818 12.1823 23.5282 12.2145L23.2987 12.3523C23.3882 12.6025 23.63 13.0828 24.1657 13.0828C24.2868 13.0828 24.3849 13.1809 24.3849 13.302C24.3849 13.4231 24.2868 13.5212 24.1657 13.5212C23.3134 13.5212 22.9167 12.7208 22.826 12.2976C22.8064 12.2059 22.8472 12.1118 22.9276 12.0636L23.1165 11.9503C23.026 11.7632 22.9347 11.473 23.0275 11.1696C23.1337 10.8222 23.4428 10.561 23.9464 10.3932C25.009 10.039 25.6857 8.80753 25.8678 8.43854C25.9061 8.36111 25.9864 8.31429 26.0724 8.31648C26.1587 8.31964 26.2351 8.37313 26.2676 8.4531C26.2719 8.4623 26.2816 8.48344 26.2881 8.51115C26.4174 9.0577 26.6214 10.1327 26.5363 11.1916C26.4308 12.5062 25.9255 13.4142 25.0346 13.8903C25.0016 13.9079 24.9662 13.9163 24.9313 13.9163Z" fill="black"/>
<path d="M21.7433 30.6528H20.1428C19.773 30.6528 19.336 30.5396 19.0772 30.0838C18.8182 30.5396 18.3814 30.6528 18.0115 30.6528H16.4282C16.2285 30.6528 16.041 30.5679 15.914 30.42C15.7968 30.2836 15.7448 30.1057 15.7714 29.9319C15.8124 29.663 15.966 29.2962 16.4652 29.0754C16.4777 29.0699 16.4797 29.0634 16.4795 29.0619C15.8655 28.4912 14.7552 27.3123 14.1761 25.7796C13.4319 23.8095 13.8132 21.9633 15.3094 20.2923C15.3668 20.2281 15.4566 20.2035 15.5387 20.2294C16.5807 20.5582 17.7726 20.7248 19.0809 20.7248C20.3925 20.7248 21.5867 20.5573 22.6305 20.227C22.7128 20.201 22.8025 20.2256 22.8599 20.2897C24.3578 21.9611 24.7399 23.8078 23.9958 25.7785C23.4168 27.3118 22.3062 28.491 21.6957 29.0575C21.6918 29.0633 21.6938 29.0699 21.7064 29.0754C22.2055 29.2962 22.3591 29.663 22.4002 29.9319C22.4267 30.1057 22.3747 30.2836 22.2576 30.42C22.1305 30.5679 21.9431 30.6528 21.7433 30.6528ZM19.0597 29.1925H19.0945C19.2045 29.1925 19.2974 29.274 19.3119 29.383C19.388 29.9579 19.6443 30.2143 20.1429 30.2143H21.7434C21.8152 30.2143 21.8814 30.1851 21.9251 30.1343C21.9493 30.106 21.9762 30.0595 21.9669 29.9979C21.9308 29.7612 21.7876 29.5906 21.5291 29.4763C21.3855 29.4128 21.2849 29.2851 21.2597 29.1347C21.2352 28.988 21.2867 28.839 21.3975 28.736C22.4685 27.7423 25.6938 24.2481 22.6257 20.6871C21.5723 21.0031 20.3806 21.1631 19.0809 21.1631C17.7844 21.1631 16.5954 21.0039 15.5439 20.6895C12.4793 24.2497 15.7034 27.7427 16.774 28.736C16.8849 28.839 16.9365 28.988 16.9119 29.1347C16.8868 29.2851 16.7861 29.4127 16.6426 29.4763C16.3841 29.5906 16.2409 29.7612 16.2048 29.9979C16.1954 30.0595 16.2224 30.106 16.2466 30.1343C16.2903 30.1851 16.3565 30.2143 16.4283 30.2143H18.0116C18.5102 30.2143 18.7665 29.9579 18.8425 29.383C18.8568 29.274 18.9498 29.1925 19.0597 29.1925Z" fill="black"/>
<path d="M19.082 23.8102C18.4262 23.8102 17.8927 23.2767 17.8927 22.6209C17.8927 21.9651 18.4262 21.4316 19.082 21.4316C19.7378 21.4316 20.2713 21.9651 20.2713 22.6209C20.2713 23.2767 19.7378 23.8102 19.082 23.8102ZM19.082 21.8701C18.6679 21.8701 18.3311 22.2069 18.3311 22.6209C18.3311 23.035 18.6679 23.3718 19.082 23.3718C19.4961 23.3718 19.8329 23.035 19.8329 22.6209C19.8329 22.2069 19.4961 21.8701 19.082 21.8701Z" fill="black"/>
<path d="M19.7129 22.1036C19.6608 22.1036 19.6101 22.0851 19.5702 22.0509C19.4341 21.9341 19.2609 21.87 19.0824 21.87C18.904 21.87 18.7307 21.9342 18.5945 22.0509C18.5492 22.0898 18.4901 22.1082 18.4305 22.1027C17.0041 21.9627 15.9041 21.3803 15.6284 20.6189C15.6005 20.5419 15.6177 20.4559 15.6733 20.3957C15.7287 20.3354 15.8132 20.3113 15.892 20.3327C16.8468 20.5926 17.9197 20.7245 19.0812 20.7245C20.2436 20.7245 21.3174 20.5924 22.2728 20.3319C22.3518 20.3104 22.4361 20.3346 22.4916 20.3948C22.5471 20.455 22.5645 20.541 22.5367 20.618C22.2614 21.3798 21.1614 21.9626 19.7343 22.1027C19.7271 22.1033 19.72 22.1036 19.7129 22.1036ZM16.3461 20.8933C16.7621 21.2682 17.5135 21.558 18.3866 21.6571C18.5887 21.511 18.8323 21.4314 19.0824 21.4314C19.3327 21.4314 19.5762 21.511 19.7783 21.6571C20.652 21.5579 21.4039 21.2679 21.8196 20.8926C20.9766 21.0721 20.0582 21.1629 19.0812 21.1629C18.1054 21.1628 17.1881 21.0724 16.3461 20.8933Z" fill="black"/>
<path d="M19.082 23.8104C18.4262 23.8104 17.8927 23.2769 17.8927 22.6211C17.8927 22.5 17.9908 22.4019 18.1119 22.4019H20.0521C20.1732 22.4019 20.2713 22.5 20.2713 22.6211C20.2713 23.2769 19.7378 23.8104 19.082 23.8104ZM18.3638 22.8403C18.4578 23.1477 18.7442 23.3719 19.082 23.3719C19.4198 23.3719 19.7062 23.1477 19.8002 22.8403H18.3638Z" fill="black"/>
<path d="M19.071 23.1048C18.9499 23.1048 18.8518 23.0067 18.8518 22.8856V22.6211C18.8518 22.5 18.9499 22.4019 19.071 22.4019C19.1921 22.4019 19.2902 22.5 19.2902 22.6211V22.8856C19.2902 23.0067 19.1921 23.1048 19.071 23.1048Z" fill="black"/>
<path d="M19.1266 17.284C18.6275 17.284 18.1577 16.6637 18.1577 16.1829C18.1577 16.0341 18.2045 15.9221 18.2968 15.8499C18.4487 15.7309 18.6392 15.7782 18.8235 15.8239C18.9259 15.8494 19.0319 15.8756 19.1266 15.8756C19.2213 15.8756 19.3272 15.8494 19.4296 15.8239C19.6138 15.7782 19.8044 15.731 19.9564 15.8499C20.0487 15.9221 20.0954 16.0342 20.0954 16.1829C20.0954 16.6637 19.6256 17.284 19.1266 17.284ZM18.5982 16.2217C18.6251 16.4909 18.9187 16.8457 19.1266 16.8457C19.3345 16.8457 19.6281 16.491 19.655 16.2217C19.6163 16.2293 19.5705 16.2407 19.535 16.2495C19.4191 16.2782 19.2748 16.314 19.1266 16.314C18.9784 16.314 18.834 16.2782 18.7181 16.2495C18.6826 16.2407 18.6368 16.2293 18.5982 16.2217Z" fill="black"/>
<path d="M20.2609 18.3013C20.2256 18.3013 20.1897 18.3 20.1529 18.2974C18.9251 18.2097 18.9077 17.1181 18.9076 17.107C18.9072 16.9859 19.0051 16.8876 19.1262 16.8872H19.1268C19.2471 16.8872 19.3449 16.9842 19.346 17.1044C19.3473 17.1768 19.3826 17.8027 20.1841 17.8601C20.398 17.8752 20.5617 17.8287 20.6824 17.7173C20.9157 17.5018 20.9216 17.1095 20.9216 17.1055C20.9226 16.9849 21.0234 16.89 21.1417 16.8877C21.2623 16.8882 21.36 16.9858 21.36 17.1065C21.36 17.1302 21.3557 17.6894 20.9828 18.0367C20.7939 18.2124 20.5514 18.3013 20.2609 18.3013Z" fill="black"/>
<path d="M17.9926 18.3013C17.702 18.3013 17.4595 18.2125 17.2707 18.0366C16.8977 17.6894 16.8934 17.13 16.8934 17.1064C16.8934 16.9853 16.9916 16.8872 17.1127 16.8872C17.2337 16.8872 17.3319 16.9853 17.3319 17.1064C17.3319 17.1095 17.3377 17.5018 17.5711 17.7173C17.6917 17.8287 17.8547 17.8757 18.0693 17.8601C18.8959 17.8011 18.9073 17.1341 18.9074 17.1058C18.9078 16.985 19.0059 16.8872 19.1266 16.8872H19.1273C19.2484 16.8876 19.3462 16.9859 19.3459 17.107C19.3459 17.118 19.3284 18.2096 18.1005 18.2974C18.0638 18.2999 18.0278 18.3013 17.9926 18.3013Z" fill="black"/>
<path d="M19.1265 19.8414C18.4936 19.8414 17.9766 19.1257 17.8691 18.1009C17.8629 18.0419 17.881 17.9829 17.919 17.9374C17.9571 17.8919 18.0121 17.8637 18.0712 17.8594C18.8716 17.8011 18.9059 17.175 18.9073 17.1038C18.9094 16.9842 19.007 16.8877 19.1265 16.8877H19.1281C19.2479 16.8886 19.3446 16.9845 19.3457 17.1041C19.3471 17.1767 19.3824 17.8013 20.1818 17.8594C20.241 17.8637 20.2959 17.8919 20.3339 17.9374C20.3721 17.9829 20.39 18.0419 20.3838 18.1009C20.2763 19.1257 19.7593 19.8414 19.1265 19.8414ZM18.3351 18.2657C18.453 18.9181 18.7813 19.4031 19.1265 19.4031C19.4716 19.4031 19.7999 18.9181 19.9178 18.2657C19.5146 18.1845 19.2721 17.9805 19.1265 17.7659C18.9808 17.9805 18.7385 18.1845 18.3351 18.2657Z" fill="black"/>
<path d="M28.1214 17.1959C28.1043 17.1959 28.087 17.1939 28.0696 17.1897C25.2252 16.5001 22.6938 16.6644 22.6686 16.6662C22.5472 16.6741 22.4432 16.5833 22.4349 16.4626C22.4265 16.3418 22.5177 16.2371 22.6385 16.2288C22.6643 16.2271 25.2635 16.0583 28.1729 16.7636C28.2906 16.7921 28.3628 16.9107 28.3343 17.0283C28.3101 17.1286 28.2203 17.1959 28.1214 17.1959Z" fill="black"/>
<path d="M27.8878 19.3422C27.8537 19.3422 27.8192 19.3342 27.7868 19.3174C25.1904 17.9665 22.6933 17.5197 22.6684 17.5153C22.5492 17.4944 22.4694 17.3809 22.4903 17.2616C22.5111 17.1423 22.6246 17.0626 22.744 17.0834C22.7696 17.0878 25.3334 17.5466 27.9892 18.9284C28.0966 18.9843 28.1383 19.1167 28.0825 19.2241C28.0434 19.2992 27.9669 19.3422 27.8878 19.3422Z" fill="black"/>
<path d="M10.2191 17.196C10.1203 17.196 10.0306 17.1287 10.0062 17.0284C9.97771 16.9107 10.05 16.7922 10.1676 16.7636C13.0771 16.0584 15.6761 16.2271 15.7021 16.2288C15.8228 16.2372 15.914 16.3419 15.9057 16.4626C15.8975 16.5834 15.7928 16.6741 15.672 16.6663C15.6466 16.6646 13.1118 16.501 10.2709 17.1898C10.2536 17.194 10.2361 17.196 10.2191 17.196Z" fill="black"/>
<path d="M10.4528 19.3422C10.3737 19.3422 10.2973 19.2992 10.2582 19.2241C10.2023 19.1166 10.2441 18.9843 10.3515 18.9284C13.0073 17.5466 15.5711 17.0878 15.5967 17.0833C15.7162 17.0627 15.8295 17.1423 15.8503 17.2615C15.8712 17.3808 15.7914 17.4943 15.6722 17.5153C15.6472 17.5197 13.1469 17.9682 10.5538 19.3174C10.5216 19.3342 10.487 19.3422 10.4528 19.3422Z" fill="black"/>
<path d="M20.4106 15.5141C20.2899 15.5141 20.1918 15.4164 20.1914 15.2956C20.1899 14.8317 20.5661 14.4532 21.0299 14.4517C21.2571 14.4504 21.4661 14.5377 21.6255 14.6961C21.7849 14.8545 21.8731 15.0655 21.8739 15.2901C21.8742 15.4112 21.7764 15.5097 21.6553 15.5101C21.6551 15.5101 21.6548 15.5101 21.6546 15.5101C21.5339 15.5101 21.4358 15.4124 21.4354 15.2915C21.4351 15.1839 21.3929 15.0829 21.3165 15.0071C21.2405 14.9316 21.1397 14.89 21.0327 14.89C21.0322 14.89 21.0318 14.89 21.0314 14.89C20.8093 14.8907 20.6291 15.0721 20.6298 15.2941C20.6302 15.4152 20.5324 15.5136 20.4113 15.514C20.4111 15.5141 20.4108 15.5141 20.4106 15.5141Z" fill="black"/>
<path d="M17.7969 15.5121C17.6758 15.5121 17.5776 15.4139 17.5776 15.2928C17.5776 15.0707 17.3969 14.8901 17.1748 14.8901C16.9527 14.8901 16.7721 15.0708 16.7721 15.2928C16.7721 15.4139 16.6739 15.5121 16.5528 15.5121C16.4317 15.5121 16.3336 15.4139 16.3336 15.2928C16.3336 14.829 16.711 14.4517 17.1748 14.4517C17.6387 14.4517 18.0161 14.8291 18.0161 15.2928C18.0161 15.4139 17.9179 15.5121 17.7969 15.5121Z" fill="black"/>
<path d="M13.2307 13.9164C13.1958 13.9164 13.1604 13.908 13.1274 13.8904C12.2366 13.4142 11.7313 12.5063 11.6257 11.1917C11.5407 10.1327 11.7447 9.05771 11.874 8.51124C11.8805 8.48353 11.8903 8.4624 11.8948 8.45223C11.9274 8.37226 12.0036 8.31921 12.0898 8.31605C12.1757 8.31307 12.256 8.36112 12.2942 8.43855C12.4764 8.80753 13.1533 10.039 14.2156 10.3932C14.7192 10.561 15.0284 10.8223 15.1346 11.1696C15.2274 11.473 15.1361 11.7633 15.0455 11.9503L15.2344 12.0636C15.3148 12.1118 15.3556 12.2059 15.3359 12.2976C15.2453 12.7208 14.8485 13.5212 13.9962 13.5212C13.8752 13.5212 13.777 13.4231 13.777 13.302C13.777 13.1809 13.8752 13.0828 13.9962 13.0828C14.5284 13.0828 14.7721 12.6015 14.8627 12.3519L14.6337 12.2146C14.5802 12.1824 14.5428 12.1289 14.5311 12.0675C14.5195 12.006 14.5346 11.9425 14.5728 11.893C14.5745 11.8907 14.8037 11.582 14.7148 11.2958C14.6516 11.0929 14.437 10.9291 14.0771 10.8091C13.1899 10.5134 12.5509 9.71623 12.19 9.14504C12.0911 9.69458 12.0046 10.4321 12.0628 11.1567C12.1558 12.3128 12.5835 13.1024 13.3343 13.5038C13.441 13.5609 13.4813 13.6937 13.4243 13.8004C13.3846 13.8743 13.3089 13.9164 13.2307 13.9164Z" fill="black"/>
<path d="M19.1259 19.8417C18.7947 19.8417 18.4833 19.6412 18.2493 19.277C18.2029 19.2049 18.2029 19.1124 18.2492 19.0402C18.4831 18.6755 18.7945 18.4746 19.126 18.4746C19.4574 18.4746 19.7688 18.6755 20.0028 19.0402C20.0491 19.1124 20.049 19.205 20.0027 19.2771C19.7685 19.6412 19.4571 19.8417 19.1259 19.8417ZM18.7043 19.1584C18.8034 19.2783 18.9491 19.4033 19.1259 19.4033C19.3027 19.4033 19.4484 19.2783 19.5476 19.1584C19.4485 19.0383 19.3028 18.913 19.1259 18.913C18.949 18.913 18.8033 19.0383 18.7043 19.1584Z" fill="black"/>
</svg>
