<svg width="9" height="12" viewBox="0 0 9 12" fill="none" xmlns="http://www.w3.org/2000/svg">
<path opacity="0.7" d="M4.5 0C2.01572 0 0 1.72795 0 3.85714C0 7.28571 4.5 12 4.5 12C4.5 12 9 7.28571 9 3.85714C9 1.72795 6.98428 0 4.5 0ZM4.5 6C4.14399 6 3.79598 5.89946 3.49997 5.71109C3.20397 5.52272 2.97325 5.25499 2.83702 4.94174C2.70078 4.6285 2.66513 4.28381 2.73459 3.95127C2.80404 3.61873 2.97547 3.31328 3.22721 3.07353C3.47894 2.83378 3.79967 2.67051 4.14884 2.60437C4.498 2.53822 4.85992 2.57217 5.18883 2.70192C5.51774 2.83167 5.79886 3.0514 5.99664 3.33331C6.19443 3.61522 6.3 3.94666 6.3 4.28571C6.29948 4.74022 6.10967 5.17597 5.77222 5.49735C5.43476 5.81873 4.97723 5.9995 4.5 6Z" fill="black"/>
</svg>
