<svg width="24" height="24" viewBox="0 0 24 24" fill="none" xmlns="http://www.w3.org/2000/svg">
<path d="M1.21222 0L0 1.21139L2.13547 4.90186L3.52034 4.69888L11.9736 13.1473L11.2525 13.8392C10.8832 14.2083 10.8832 14.7674 11.2525 15.1364L11.6274 15.5119C11.9967 15.881 12.5617 15.881 12.8387 15.5119L13.9355 16.6071C13.8432 17.1607 13.9355 17.8185 14.3971 18.2798L19.3882 23.2388C20.4038 24.2537 22.0656 24.2537 23.0812 23.2388C24.2814 22.1317 24.2703 20.4765 23.2547 19.4617L18.2923 14.4731C17.8307 14.0118 17.1724 13.8272 16.6184 14.0118L15.4062 12.9166C15.6832 12.5476 15.6832 11.9829 15.4062 11.7052L15.06 11.3602C14.9761 11.2727 14.8753 11.2031 14.7638 11.1556C14.6522 11.108 14.5322 11.0835 14.411 11.0835C14.2897 11.0835 14.1697 11.108 14.0582 11.1556C13.9466 11.2031 13.8458 11.2727 13.7619 11.3602L13.1563 11.9654L4.70302 3.51793L4.90429 2.13401L1.21222 0ZM19.2155 0.0286011C17.394 -0.122708 14.9788 1.08407 13.8487 2.13309C12.4583 3.52255 12.6854 5.33918 13.7905 7.09307L11.8296 9.05363L13.2144 10.6101C13.953 9.96425 15.0425 9.96425 15.7811 10.6101L16.1568 10.9847L16.2436 11.0714L17.0514 10.2641C18.7207 11.2448 20.4582 11.386 21.7831 10.062C23.0756 8.86265 24.4771 5.90474 23.8309 4.15177L21.2347 6.83289C20.8654 7.20194 20.3059 7.20194 19.9366 6.83289L17.2527 4.15177C17.1652 4.0679 17.0956 3.9672 17.048 3.85574C17.0004 3.74428 16.9759 3.62435 16.9759 3.50317C16.9759 3.38199 17.0004 3.26207 17.048 3.1506C17.0956 3.03914 17.1652 2.93845 17.2527 2.85457L19.9375 0.173452C19.7067 0.0922616 19.4759 0.0507439 19.2155 0.0286011ZM9.05982 11.5327L5.71213 14.8772C5.35234 14.7976 4.98471 14.7589 4.61623 14.7618C2.03114 14.7618 0 16.7916 0 19.3749C0 21.9583 2.03114 23.988 4.61623 23.988C7.20133 23.988 9.23247 21.9583 9.23247 19.3749C9.23247 18.9016 9.15769 18.4468 9.03028 18.0196L10.9922 16.059L10.7041 15.6845C9.96553 14.9464 9.97107 13.8282 10.6173 13.0891L9.05982 11.5327ZM16.215 15.7426C16.3304 15.7426 16.4393 15.7647 16.5317 15.8579L21.9853 21.3069C22.1699 21.4914 22.1699 21.7848 21.9853 21.9693C21.8006 22.1538 21.5052 22.1538 21.3205 21.9693L15.8688 16.5204C15.6841 16.3358 15.6841 16.0424 15.8688 15.8579C15.9611 15.7657 16.0996 15.7426 16.215 15.7426ZM5.25143 16.9807L7.01114 18.7402L6.37594 21.1325L3.98196 21.7673L2.22133 20.0078L2.85653 17.6155L5.25143 16.9807Z" fill="black"/>
</svg>
