<svg width="22" height="22" viewBox="0 0 22 22" fill="none" xmlns="http://www.w3.org/2000/svg">
<path d="M11.0183 2.71206C8.00031 2.71206 5.54766 5.16471 5.54766 8.18265V10.8176C5.54766 11.3738 5.3106 12.2218 5.02796 12.6959L3.97943 14.4374C3.33207 15.5132 3.77884 16.7076 4.96413 17.1088C8.89384 18.4218 13.1335 18.4218 17.0633 17.1088C18.1665 16.7441 18.6497 15.4403 18.048 14.4374L16.9994 12.6959C16.7259 12.2218 16.4888 11.3738 16.4888 10.8176V8.18265C16.4888 5.17382 14.0271 2.71206 11.0183 2.71206Z" stroke="#727272" stroke-width="1.36765" stroke-miterlimit="10" stroke-linecap="round"/>
<path d="M12.705 2.97647C12.4224 2.89441 12.1306 2.83059 11.8297 2.79411C10.9544 2.6847 10.1156 2.74853 9.33149 2.97647C9.5959 2.30176 10.2524 1.82764 11.0183 1.82764C11.7841 1.82764 12.4406 2.30176 12.705 2.97647Z" stroke="#727272" stroke-width="1.36765" stroke-miterlimit="10" stroke-linecap="round" stroke-linejoin="round"/>
<path d="M13.7535 17.4371C13.7535 18.9415 12.5227 20.1724 11.0183 20.1724C10.2706 20.1724 9.57766 19.8624 9.08531 19.37C8.59296 18.8776 8.28296 18.1847 8.28296 17.4371" stroke="#727272" stroke-width="1.36765" stroke-miterlimit="10"/>
</svg>
