<svg width="31" height="30" viewBox="0 0 31 30" fill="none" xmlns="http://www.w3.org/2000/svg">
<path d="M22.4125 9.7125C22.3251 9.7 22.2375 9.7 22.15 9.7125C20.2125 9.65 18.675 8.0625 18.675 6.1125C18.675 4.125 20.2875 2.5 22.2875 2.5C24.275 2.5 25.9 4.1125 25.9 6.1125C25.8875 8.0625 24.3501 9.65 22.4125 9.7125Z" fill="white"/>
<path d="M26.4875 18.375C25.0875 19.3125 23.125 19.6625 21.3125 19.425C21.7875 18.4 22.0375 17.2625 22.05 16.0625C22.05 14.8125 21.775 13.625 21.25 12.5875C23.1 12.3375 25.0625 12.6875 26.475 13.625C28.45 14.925 28.45 17.0625 26.4875 18.375Z" fill="white"/>
<path d="M8.54995 9.7125C8.63745 9.7 8.72495 9.7 8.81245 9.7125C10.75 9.65 12.2875 8.0625 12.2875 6.1125C12.2875 4.1125 10.675 2.5 8.67495 2.5C6.68745 2.5 5.07495 4.1125 5.07495 6.1125C5.07495 8.0625 6.61245 9.65 8.54995 9.7125Z" fill="white"/>
<path d="M8.68753 16.0625C8.68753 17.275 8.95003 18.425 9.42502 19.4625C7.66252 19.65 5.82502 19.275 4.47502 18.3875C2.50002 17.075 2.50002 14.9375 4.47502 13.625C5.81252 12.725 7.70003 12.3625 9.47503 12.5625C8.96252 13.6125 8.68753 14.8 8.68753 16.0625Z" fill="white"/>
<path d="M15.65 19.8375C15.55 19.825 15.4375 19.825 15.325 19.8375C13.025 19.7625 11.1875 17.875 11.1875 15.55C11.2 13.175 13.1125 11.25 15.5 11.25C17.875 11.25 19.8 13.175 19.8 15.55C19.7875 17.875 17.9625 19.7625 15.65 19.8375Z" fill="white"/>
<path d="M11.5875 22.425C9.7 23.6875 9.7 25.7625 11.5875 27.0125C13.7375 28.45 17.2625 28.45 19.4125 27.0125C21.3 25.75 21.3 23.675 19.4125 22.425C17.275 20.9875 13.75 20.9875 11.5875 22.425Z" fill="white"/>
</svg>
