<svg width="18" height="18" viewBox="0 0 18 18" fill="none" xmlns="http://www.w3.org/2000/svg">
<path d="M8.99995 11.16C8.31745 11.16 7.76245 10.605 7.76245 9.92249V8.07001C7.76245 7.38751 8.31745 6.83249 8.99995 6.83249C9.68245 6.83249 10.2375 7.38751 10.2375 8.07001V9.92249C10.2375 10.605 9.68245 11.16 8.99995 11.16Z" stroke="#292D32" stroke-linecap="round"/>
<path d="M12.735 10.1025C12.585 12.0375 10.965 13.5525 9 13.5525C6.93 13.5525 5.25 11.8725 5.25 9.80251V8.19749C5.25 6.12749 6.93 4.44749 9 4.44749C10.9425 4.44749 12.54 5.92499 12.7275 7.81499" stroke="#292D32" stroke-linecap="round"/>
<path d="M11.25 1.5H12.75C15 1.5 16.5 3 16.5 5.25V6.75" stroke="#292D32" stroke-miterlimit="10" stroke-linecap="round" stroke-linejoin="round"/>
<path d="M1.5 6.75V5.25C1.5 3 3 1.5 5.25 1.5H6.75" stroke="#292D32" stroke-miterlimit="10" stroke-linecap="round" stroke-linejoin="round"/>
<path d="M11.25 16.5H12.75C15 16.5 16.5 15 16.5 12.75V11.25" stroke="#292D32" stroke-miterlimit="10" stroke-linecap="round" stroke-linejoin="round"/>
<path d="M1.5 11.25V12.75C1.5 15 3 16.5 5.25 16.5H6.75" stroke="#292D32" stroke-miterlimit="10" stroke-linecap="round" stroke-linejoin="round"/>
</svg>
