<svg width="12" height="16" viewBox="0 0 12 16" fill="none" xmlns="http://www.w3.org/2000/svg">
<path d="M0.75 2.74262C0.75 2.01425 0.75 1.65006 0.901868 1.44931C1.03417 1.27442 1.23639 1.16619 1.4553 1.15312C1.70658 1.13812 2.0096 1.34013 2.61564 1.74416L10.5023 7.00194C11.0031 7.33578 11.2535 7.50271 11.3407 7.7131C11.417 7.89704 11.417 8.10376 11.3407 8.2877C11.2535 8.4981 11.0031 8.66502 10.5023 8.99886L2.61564 14.2566C2.0096 14.6607 1.70658 14.8627 1.4553 14.8477C1.23639 14.8346 1.03417 14.7264 0.901868 14.5515C0.75 14.3507 0.75 13.9866 0.75 13.2582V2.74262Z" stroke="white" stroke-width="1.2" stroke-linecap="round" stroke-linejoin="round"/>
</svg>
