<svg width="16" height="18" viewBox="0 0 16 18" fill="none" xmlns="http://www.w3.org/2000/svg">
<path d="M12.1667 8.16667V5.66667C12.1667 3.36548 10.3012 1.5 7.99999 1.5C5.69881 1.5 3.83333 3.36548 3.83333 5.66667V8.16667M5.33333 16.5H10.6667C12.0668 16.5 12.7669 16.5 13.3016 16.2275C13.772 15.9878 14.1545 15.6054 14.3942 15.135C14.6667 14.6002 14.6667 13.9001 14.6667 12.5V12.1667C14.6667 10.7665 14.6667 10.0665 14.3942 9.53169C14.1545 9.06128 13.772 8.67883 13.3016 8.43915C12.7669 8.16667 12.0668 8.16667 10.6667 8.16667H5.33333C3.9332 8.16667 3.23313 8.16667 2.69835 8.43915C2.22795 8.67883 1.8455 9.06128 1.60581 9.53169C1.33333 10.0665 1.33333 10.7665 1.33333 12.1667V12.5C1.33333 13.9001 1.33333 14.6002 1.60581 15.135C1.8455 15.6054 2.22795 15.9878 2.69835 16.2275C3.23313 16.5 3.9332 16.5 5.33333 16.5Z" stroke="#292D32" stroke-width="1.5" stroke-linecap="round" stroke-linejoin="round"/>
</svg>
