<svg width="20" height="20" viewBox="0 0 20 20" fill="none" xmlns="http://www.w3.org/2000/svg">
<g clip-path="url(#clip0_2135_3341)">
<path d="M7.57501 7.50033C7.77093 6.94338 8.15763 6.47375 8.66663 6.1746C9.17564 5.87546 9.77409 5.76611 10.356 5.86592C10.9379 5.96573 11.4657 6.26826 11.8459 6.71993C12.2261 7.1716 12.4342 7.74326 12.4333 8.33366C12.4333 10.0003 9.93334 10.8337 9.93334 10.8337M10 14.167H10.0083M18.3333 10.0003C18.3333 14.6027 14.6024 18.3337 10 18.3337C5.39763 18.3337 1.66667 14.6027 1.66667 10.0003C1.66667 5.39795 5.39763 1.66699 10 1.66699C14.6024 1.66699 18.3333 5.39795 18.3333 10.0003Z" stroke="#292D32" stroke-width="1.5" stroke-linecap="round" stroke-linejoin="round"/>
</g>
<defs>
<clipPath id="clip0_2135_3341">
<rect width="20" height="20" fill="white"/>
</clipPath>
</defs>
</svg>
