<svg width="16" height="16" viewBox="0 0 16 16" fill="none" xmlns="http://www.w3.org/2000/svg">
<path d="M4.25 1.25V3.8C4.25 4.22004 4.25 4.43006 4.33175 4.59049C4.40365 4.73161 4.51839 4.84635 4.65951 4.91825C4.81994 5 5.02996 5 5.45 5H10.55C10.97 5 11.1801 5 11.3405 4.91825C11.4816 4.84635 11.5964 4.73161 11.6683 4.59049C11.75 4.43006 11.75 4.22004 11.75 3.8V2M11.75 14.75V9.95C11.75 9.52996 11.75 9.31994 11.6683 9.15951C11.5964 9.01839 11.4816 8.90365 11.3405 8.83175C11.1801 8.75 10.97 8.75 10.55 8.75H5.45C5.02996 8.75 4.81994 8.75 4.65951 8.83175C4.51839 8.90365 4.40365 9.01839 4.33175 9.15951C4.25 9.31994 4.25 9.52996 4.25 9.95V14.75M14.75 5.99411V11.15C14.75 12.4101 14.75 13.0402 14.5048 13.5215C14.289 13.9448 13.9448 14.289 13.5215 14.5048C13.0402 14.75 12.4101 14.75 11.15 14.75H4.85C3.58988 14.75 2.95982 14.75 2.47852 14.5048C2.05516 14.289 1.71095 13.9448 1.49524 13.5215C1.25 13.0402 1.25 12.4101 1.25 11.15V4.85C1.25 3.58988 1.25 2.95982 1.49524 2.47852C1.71095 2.05516 2.05516 1.71095 2.47852 1.49524C2.95982 1.25 3.58988 1.25 4.85 1.25H10.0059C10.3728 1.25 10.5562 1.25 10.7288 1.29145C10.8819 1.32819 11.0282 1.3888 11.1624 1.47104C11.3138 1.5638 11.4435 1.69352 11.7029 1.95294L14.0471 4.29706C14.3065 4.55648 14.4362 4.6862 14.529 4.83757C14.6112 4.97178 14.6718 5.1181 14.7086 5.27115C14.75 5.44378 14.75 5.62723 14.75 5.99411Z" stroke="white" stroke-width="1.2" stroke-linecap="round" stroke-linejoin="round"/>
</svg>
