<svg width="16" height="19" viewBox="0 0 16 19" fill="none" xmlns="http://www.w3.org/2000/svg">
<path d="M7.41838 18.0127C7.60287 18.1203 7.69512 18.1741 7.82531 18.2021C7.92634 18.2237 8.07374 18.2237 8.17477 18.2021C8.30496 18.1741 8.39721 18.1203 8.5817 18.0127C10.2051 17.0656 14.6667 14.0907 14.6667 10.0003V6.01497C14.6667 5.34871 14.6667 5.01558 14.5577 4.72922C14.4615 4.47625 14.3051 4.25053 14.102 4.07157C13.8721 3.869 13.5602 3.75203 12.9364 3.51809L8.4682 1.84253C8.29496 1.77756 8.20834 1.74508 8.11922 1.7322C8.04018 1.72078 7.9599 1.72078 7.88086 1.7322C7.79175 1.74508 7.70512 1.77756 7.53188 1.84253L3.06371 3.51809C2.43987 3.75203 2.12795 3.869 1.89809 4.07157C1.69503 4.25053 1.5386 4.47625 1.44234 4.72922C1.33337 5.01558 1.33337 5.34871 1.33337 6.01497V10.0003C1.33337 14.0907 5.79501 17.0656 7.41838 18.0127Z" stroke="#292D32" stroke-width="1.5" stroke-linecap="round" stroke-linejoin="round"/>
</svg>
