<svg width="20" height="21" viewBox="0 0 20 21" fill="none" xmlns="http://www.w3.org/2000/svg">
<path d="M1.6665 6.62891L8.4706 11.3918C9.02158 11.7775 9.29707 11.9703 9.59672 12.045C9.86142 12.111 10.1383 12.111 10.403 12.045C10.7026 11.9703 10.9781 11.7775 11.5291 11.3918L18.3332 6.62891M5.6665 17.4622H14.3332C15.7333 17.4622 16.4334 17.4622 16.9681 17.1898C17.4386 16.9501 17.821 16.5676 18.0607 16.0972C18.3332 15.5624 18.3332 14.8624 18.3332 13.4622V8.12891C18.3332 6.72877 18.3332 6.02871 18.0607 5.49393C17.821 5.02352 17.4386 4.64107 16.9681 4.40139C16.4334 4.12891 15.7333 4.12891 14.3332 4.12891H5.6665C4.26637 4.12891 3.56631 4.12891 3.03153 4.40139C2.56112 4.64107 2.17867 5.02352 1.93899 5.49393C1.6665 6.02871 1.6665 6.72877 1.6665 8.12891V13.4622C1.6665 14.8624 1.6665 15.5624 1.93899 16.0972C2.17867 16.5676 2.56112 16.9501 3.03153 17.1898C3.56631 17.4622 4.26637 17.4622 5.6665 17.4622Z" stroke="#717680" stroke-width="1.66667" stroke-linecap="round" stroke-linejoin="round"/>
</svg>
