<svg width="16" height="20" viewBox="0 0 16 20" fill="none" xmlns="http://www.w3.org/2000/svg">
<path d="M9.66666 1.8916V5.33372C9.66666 5.80043 9.66666 6.03378 9.75749 6.21204C9.83738 6.36885 9.96487 6.49633 10.1217 6.57622C10.2999 6.66705 10.5333 6.66705 11 6.66705H14.4421M11.3333 10.8337H4.66666M11.3333 14.167H4.66666M6.33333 7.50033H4.66666M9.66666 1.66699H5.33333C3.9332 1.66699 3.23313 1.66699 2.69835 1.93948C2.22795 2.17916 1.8455 2.56161 1.60581 3.03202C1.33333 3.5668 1.33333 4.26686 1.33333 5.66699V14.3337C1.33333 15.7338 1.33333 16.4339 1.60581 16.9686C1.8455 17.439 2.22795 17.8215 2.69835 18.0612C3.23313 18.3337 3.9332 18.3337 5.33333 18.3337H10.6667C12.0668 18.3337 12.7669 18.3337 13.3016 18.0612C13.772 17.8215 14.1545 17.439 14.3942 16.9686C14.6667 16.4339 14.6667 15.7338 14.6667 14.3337V6.66699L9.66666 1.66699Z" stroke="#292D32" stroke-width="1.5" stroke-linecap="round" stroke-linejoin="round"/>
</svg>
