<svg width="21" height="19" viewBox="0 0 21 19" fill="none" xmlns="http://www.w3.org/2000/svg">
<path d="M6.84991 0.999906C8.02991 0.829906 9.27991 2.11991 9.63991 3.89991C9.99991 5.66991 9.34991 7.24991 8.16991 7.42991C6.99991 7.60991 5.73991 6.31991 5.36991 4.53991C4.99991 2.76991 5.66991 1.18991 6.84991 0.999906ZM13.9999 0.999906C15.1899 1.18991 15.8499 2.76991 15.4999 4.53991C15.1199 6.31991 13.8699 7.60991 12.6899 7.42991C11.4999 7.24991 10.8499 5.66991 11.2199 3.89991C11.5799 2.11991 12.8299 0.829906 13.9999 0.999906ZM1.49991 5.59991C2.63991 5.10991 4.18991 5.99991 4.99991 7.54991C5.75991 9.12991 5.49991 10.7899 4.36991 11.2799C3.23991 11.7699 1.69991 10.8899 0.909907 9.31991C0.119906 7.74991 0.399906 6.07991 1.49991 5.59991ZM19.4999 5.59991C20.5999 6.07991 20.8799 7.74991 20.0899 9.31991C19.2999 10.8899 17.7599 11.7699 16.6299 11.2799C15.4999 10.7899 15.2399 9.12991 15.9999 7.54991C16.8099 5.99991 18.3599 5.10991 19.4999 5.59991ZM17.8299 16.3799C17.8699 17.3199 17.1499 18.3599 16.2899 18.7499C14.4999 19.5699 12.3799 17.8699 10.3899 17.8699C8.39991 17.8699 6.25991 19.6399 4.49991 18.7499C3.49991 18.2599 2.80991 16.9599 2.93991 15.8799C3.11991 14.3899 4.90991 13.5899 5.96991 12.4999C7.37991 11.0899 8.37991 8.43991 10.3899 8.43991C12.3899 8.43991 13.4499 11.0499 14.7999 12.4999C15.9099 13.7199 17.7599 14.7499 17.8299 16.3799Z" fill="url(#paint0_linear_2465_3922)"/>
<defs>
<linearGradient id="paint0_linear_2465_3922" x1="10" y1="-2.50012" x2="10.4999" y2="19.0002" gradientUnits="userSpaceOnUse">
<stop stop-color="#724E2D"/>
<stop offset="0.608929" stop-color="white"/>
</linearGradient>
</defs>
</svg>
